<svg xmlns="http://www.w3.org/2000/svg" width="89" height="38" viewBox="0 0 89 38">
    <g fill="none" fill-rule="evenodd">
        <path fill="#2E2E2E" d="M21.442 2.235c-.288 0-.573.009-.854.025a.332.332 0 0 0-.27.17 253.324 253.324 0 0 1-4.426 7.7.331.331 0 0 0 .11.453 7.233 7.233 0 0 1 2.029 1.835c.586.788.966 1.732 1.29 2.636a.33.33 0 0 0 .396.208c2.027-.538 3.932-1.488 5.662-2.822 1.6-1.234 3.234-3.598 3.042-5.876-.12-1.42-.936-2.57-2.363-3.33-1.227-.654-2.823-1-4.616-1m-6.931 10.39a.332.332 0 0 0-.243.152c-.454.72-.917 1.436-1.385 2.148a.33.33 0 0 0 .206.505 13.8 13.8 0 0 0 2.928.314h.209a.332.332 0 0 0 .292-.48c-.542-1.089-1.11-1.922-1.737-2.545a.33.33 0 0 0-.27-.095m66.352-8.648c-.539 0-1.123.082-1.737.243-1.988.523-3.713 1.777-5.128 3.729-2.225 3.585-.769 10.306 4.86 14.25a.33.33 0 0 0 .36.014c2.541-1.517 4.725-4.245 5.841-7.299.87-2.932.873-7.044-.789-9.27-.826-1.106-1.973-1.667-3.407-1.667M36.237 15.102c-.846.02-1.635.339-2.344.948-.688.591-1.241 1.38-1.645 2.34a7.838 7.838 0 0 0-.605 3.05c0 .656.138 1.14.421 1.48.295.353.7.532 1.205.532.51 0 .988-.284 1.42-.846.396-.515.686-1.2.86-2.035l1.02-5.073a.332.332 0 0 0-.324-.396h-.008m26.206 0c-.846.02-1.635.339-2.344.948-.688.591-1.242 1.38-1.646 2.34a7.838 7.838 0 0 0-.604 3.05c0 .656.138 1.14.42 1.48.295.353.7.532 1.206.532.51 0 .988-.284 1.42-.846.396-.515.686-1.2.86-2.035l1.02-5.073a.332.332 0 0 0-.324-.396h-.008m8.901 1.254a.33.33 0 0 0-.33.307c-.138 1.87-.025 4.4 1.294 5.82.657.707 1.541 1.066 2.627 1.066.3 0 .618-.028.948-.083.059-.01.116-.023.174-.036l.098-.021a.33.33 0 0 0 .148-.58 14.205 14.205 0 0 1-1.539-1.47 19.556 19.556 0 0 1-3.119-4.809.331.331 0 0 0-.301-.194m-23.25-1.034c-.785 0-1.66.733-2.672 2.24a.326.326 0 0 0-.055.177c-.02.812-.03 1.977-.03 3.563 0 .837-.008 1.491-.026 1.943a.331.331 0 0 0 .403.337c.721-.16 1.394-.558 1.998-1.182.59-.608 1.062-1.368 1.407-2.26a7.739 7.739 0 0 0 .519-2.806c0-.623-.135-1.113-.4-1.456a1.396 1.396 0 0 0-1.144-.556m-5.842 8.708a.331.331 0 0 0-.304.2c-.793 1.845-1.429 3.63-1.889 5.307-.464 1.692-.7 3.14-.7 4.303 0 .641.077 1.127.235 1.484.194.442.459.666.785.666.72 0 1.189-1.052 1.567-3.519.33-2.157.545-4.883.637-8.1a.33.33 0 0 0-.33-.341m-2.095 13.998c-.882 0-1.513-.303-1.93-.927-.437-.657-.66-1.597-.66-2.792 0-1.755.412-3.837 1.222-6.19.231-.67.507-1.375.841-2.154a.333.333 0 0 0-.372-.455c-.201.043-.385.063-.561.063-.533 0-1.01-.178-1.458-.545-.456-.373-.807-.895-1.042-1.55a.332.332 0 0 0-.593-.063c-.71 1.147-1.576 1.842-2.574 2.067-1.972.654-3.796.98-5.453.98-3.624 0-6.388-1.548-8.216-4.603-.57-.953-1.038-2.174-1.533-3.467l-.123-.321a.332.332 0 0 0-.31-.212h-.013c-.25.01-.5.016-.748.016-1.716 0-3.384-.249-4.958-.738a.33.33 0 0 0-.37.129c-2.58 3.749-6.01 8.053-9.664 8.053-.239 0-.478-.02-.712-.057-.87-.141-.954-.725-.927-1.06.058-.716.708-1.514 1.548-1.514.074 0 .15.006.226.018l.003-.02c.118-.007.33-.022.546-.096 1.13-.39 2.082-1.18 2.943-1.975 1.214-1.122 2.366-2.473 3.624-4.251a.33.33 0 0 0-.074-.458c-.517-.38-.636-1.074-.486-1.533.058-.176.207-.47.557-.47.156 0 .334.053.529.16.116.063.233.12.35.176l.158.077a.33.33 0 0 0 .425-.117c.314-.486.624-.973.932-1.459.117-.185.233-.373.348-.56l.25-.405a.33.33 0 0 0-.26-.506 6.567 6.567 0 0 0-.767-.001c-.494 0-.747-.164-.757-.488-.014-.507.57-1.323 1.375-1.367.114-.006.227-.009.341-.009.386 0 .788.033 1.23.101a.332.332 0 0 0 .334-.156A256.242 256.242 0 0 0 18.333.762 1.449 1.449 0 0 1 19.636 0c.148 0 .295.02.436.059.03.008.06.013.09.013h.016c.244-.013.491-.019.74-.019 2.798 0 5.27.754 6.96 2.124 3.03 2.458 3.453 7.04.94 10.215-1.974 2.492-4.819 4.232-8.229 5.033a.33.33 0 0 0-.231.447c.691 1.697 1.605 3.62 3.15 5.001 1.318 1.18 2.962 1.778 4.884 1.778.294 0 .6-.014.91-.041a.33.33 0 0 0 .25-.509c-.459-.714-.692-1.618-.692-2.688 0-1.41.33-2.763.983-4.023.652-1.26 1.53-2.287 2.612-3.051 1.067-.756 2.213-1.138 3.404-1.138.337 0 .513.063.566.123.055.062.165.237.269.694a.331.331 0 0 0 .384.252 6.18 6.18 0 0 1 1.151-.105c1.02 0 1.02.428 1.02.633 0 .363-.138 1.27-.408 2.695-.43 2.148-.64 3.612-.64 4.47 0 .354.096.648.284.874.2.24.474.367.791.367.439 0 .927-.249 1.49-.762.37-.334.842-.831 1.406-1.476a.333.333 0 0 0 .036-.051s.285-.49.384-.655c.03-.051.047-.11.047-.17 0-2.664-.019-4.55-.056-5.606-.015-.423.143-.737.495-.986.382-.27.873-.407 1.462-.407.295 0 .51.052.62.15.047.042.159.193.178.69 0 .461.01.804.03 1.034a.331.331 0 0 0 .588.178c.559-.698 1.11-1.204 1.64-1.503a3.335 3.335 0 0 1 1.656-.44c.93 0 1.67.365 2.262 1.115.602.764.906 1.789.906 3.046 0 .933-.152 1.852-.45 2.732-.3.883-.72 1.697-1.25 2.42a.33.33 0 0 0 .177.513c.42.12.766.178 1.055.178.68 0 1.334-.247 1.943-.734a11.21 11.21 0 0 0 1.086-1.03.33.33 0 0 0 .091-.221 8.653 8.653 0 0 1 .977-3.83c.652-1.26 1.53-2.286 2.611-3.05 1.068-.756 2.214-1.138 3.405-1.138.336 0 .513.063.565.123.056.062.165.237.27.694a.331.331 0 0 0 .384.252 6.18 6.18 0 0 1 1.151-.105c1.019 0 1.019.428 1.019.633 0 .363-.137 1.27-.407 2.695-.43 2.148-.64 3.612-.64 4.47 0 .354.096.648.283.874.2.24.474.367.792.367.439 0 .926-.249 1.49-.762.511-.463 1.18-1.19 2.043-2.223a.87.87 0 0 1 .222-.187.331.331 0 0 0 .151-.372c-.652-2.407-.634-5.406.05-8.227a15.747 15.747 0 0 1 1.501-3.817c.195-.452.407-.85.646-1.212a.701.701 0 0 1 .196-.189.328.328 0 0 0 .083-.082c1.16-1.636 3.633-4.381 7.182-4.381.762 0 1.54.13 2.312.387 5.789 1.933 7.492 9.018 5.794 14.752-.855 2.334-2.572 4.753-4.587 6.45a.33.33 0 0 0 .147.577 8.12 8.12 0 0 0 1.61.165c.775 0 1.54-.119 2.273-.353.108-.035.227-.052.353-.052.842 0 1.75.737 1.84 1.308.016.105.065.426-.597.637a10.57 10.57 0 0 1-3.224.493c-1.627 0-3.278-.342-4.906-1.016a.336.336 0 0 0-.26.003c-1.074.477-2.147.719-3.19.719a6.78 6.78 0 0 1-2.72-.575c-1.53-.667-2.734-1.768-3.58-3.272a.33.33 0 0 0-.288-.169h-.01a.332.332 0 0 0-.289.189 1.572 1.572 0 0 1-.221.358c-.74.92-1.527 1.698-2.348 2.323-.781.595-1.539.897-2.252.897-.532 0-1.009-.178-1.457-.545-.456-.373-.807-.895-1.042-1.55a.332.332 0 0 0-.593-.063c-.899 1.452-1.988 2.158-3.328 2.158-1.045 0-1.853-.366-2.472-1.12a3.658 3.658 0 0 1-.361-.532.33.33 0 0 0-.509-.084c-.38.341-.732.622-1.075.857-.85.584-1.83.879-2.913.879-.881 0-1.575-.305-2.12-.934a.33.33 0 0 0-.43-.06c-.988.642-2.033.976-3.104.994a.332.332 0 0 0-.325.309c-.236 3.498-.777 6.458-1.608 8.798-.8 2.254-1.915 3.348-3.408 3.348"/>
    </g>
</svg>
