<svg xmlns="http://www.w3.org/2000/svg" width="21" height="21" viewBox="0 0 21 21">
    <g fill="none" fill-rule="evenodd">
        <path d="M0 0h21v21H0z"/>
        <path fill="#2E2E2E" d="M17.896 16.408H2.52v-1.744c0-.92.38-1.758 1.067-2.365l.382-.337.091-.501c.178-.97.77-4.222.957-5.437a5.467 5.467 0 0 1 1.755-3.245 5.162 5.162 0 0 1 6.872 0 5.46 5.46 0 0 1 1.754 3.245c.196 1.26.832 4.75.958 5.437l.091.5.382.338a3.113 3.113 0 0 1 1.067 2.365v1.744zm-7.688 3.122a2.287 2.287 0 0 1-2.2-1.652h4.4a2.287 2.287 0 0 1-2.2 1.652zm7.594-8.334c-.164-.898-.765-4.194-.95-5.397a6.939 6.939 0 0 0-2.23-4.118 6.635 6.635 0 0 0-8.827 0A6.939 6.939 0 0 0 3.565 5.8c-.186 1.202-.787 4.5-.95 5.397a4.599 4.599 0 0 0-1.565 3.468v3.214H6.491A3.776 3.776 0 0 0 10.208 21c1.86 0 3.41-1.351 3.716-3.122h5.442v-3.214c0-1.338-.567-2.589-1.564-3.468z"/>
    </g>
</svg>
