<svg xmlns="http://www.w3.org/2000/svg" width="28" height="28" viewBox="0 0 28 28">
    <g fill="none" fill-rule="evenodd">
        <path d="M0 0h28v28H0z"/>
        <g fill="#231814">
            <path d="M14 5a6 6 0 1 0 0 12 6 6 0 0 0 0-12m0 1.2c2.647 0 4.8 2.153 4.8 4.8s-2.153 4.8-4.8 4.8A4.805 4.805 0 0 1 9.2 11c0-2.647 2.153-4.8 4.8-4.8"/>
            <path d="M14 0C7.925 0 3 4.925 3 11c0 2.993 1.199 5.703 3.138 7.686L14 28l7.866-9.319A10.957 10.957 0 0 0 25 11c0-6.075-4.925-11-11-11m0 1.2c5.404 0 9.8 4.396 9.8 9.8a9.747 9.747 0 0 1-2.792 6.843l-.031.031-.028.033L14 26.14l-6.945-8.228-.028-.034-.031-.031A9.743 9.743 0 0 1 4.2 11c0-5.404 4.396-9.8 9.8-9.8"/>
        </g>
    </g>
</svg>
