<svg xmlns="http://www.w3.org/2000/svg" width="30" height="30" viewBox="0 0 30 30">
    <g fill="none" fill-rule="evenodd">
        <path d="M0 0h30v30H0z"/>
        <path fill="#DDD" d="M6.2 13.3c-.935 0-1.7.765-1.7 1.7 0 .935.765 1.7 1.7 1.7.935 0 1.7-.765 1.7-1.7 0-.935-.765-1.7-1.7-1.7zm7.3 1.7c0 .935.765 1.7 1.7 1.7.935 0 1.7-.765 1.7-1.7 0-.935-.765-1.7-1.7-1.7-.935 0-1.7.765-1.7 1.7zm10.3 1.7c.935 0 1.7-.765 1.7-1.7 0-.935-.765-1.7-1.7-1.7-.935 0-1.7.765-1.7 1.7 0 .935.765 1.7 1.7 1.7z"/>
    </g>
</svg>
