<svg xmlns="http://www.w3.org/2000/svg" width="26" height="26" viewBox="0 0 26 26">
    <path fill="#CECECE" fill-rule="evenodd" d="M13.023 2.321c-2.956 0-5.455 1.045-7.498 3.134a12.44 12.44 0 0 0-1.44 1.742l4.969 2.228a3.045 3.045 0 0 1 1.23-1.636c.603-.41 1.308-.639 2.113-.685V5.107h1.509v1.997c1.192.062 2.275.464 3.25 1.207l-1.695 1.74c-.728-.51-1.47-.765-2.229-.765-.402 0-.762.078-1.079.232-.317.155-.476.418-.476.79 0 .108.039.216.116.324l1.648.744 1.138.51 2.09.929 6.66 2.971c.218-.913.326-1.841.326-2.786 0-2.987-1.037-5.501-3.11-7.545-2.059-2.09-4.567-3.134-7.522-3.134zM2.925 9.495c-.387 1.068-.58 2.236-.58 3.505 0 2.88 1.052 5.371 3.156 7.475 2.12 2.09 4.628 3.135 7.521 3.135 2.926 0 5.448-1.06 7.569-3.18.758-.728 1.353-1.487 1.786-2.277l-4.897-2.182a3.35 3.35 0 0 1-1.242 2.008c-.66.518-1.436.817-2.334.894v1.996h-1.508v-1.996c-1.44-.015-2.756-.533-3.947-1.555l1.788-1.81c.85.788 1.818 1.183 2.902 1.183.448 0 .832-.1 1.15-.302.316-.2.475-.533.475-.998a.995.995 0 0 0-.348-.79l-1.254-.534-1.531-.697-2.067-.905-6.639-2.97zM12.976 0c3.653 0 6.732 1.253 9.24 3.76C24.738 6.268 26 9.347 26 13c0 3.653-1.238 6.693-3.715 9.124C19.655 24.708 16.55 26 12.976 26c-3.528 0-6.577-1.285-9.145-3.853C1.277 19.593 0 16.545 0 13c0-3.56 1.277-6.64 3.83-9.24C6.339 1.255 9.387 0 12.977 0z"/>
</svg>
