<svg xmlns="http://www.w3.org/2000/svg" width="26" height="26" viewBox="0 0 26 26">
    <path fill="#CECECE" fill-rule="evenodd" d="M8.474 16.341h9.448v-2.226H8.474v2.226zm0-4.178h9.448V9.935H8.474v2.228zm4.55-9.819c-2.955 0-5.455 1.045-7.498 3.135-2.12 2.151-3.18 4.658-3.18 7.52 0 2.895 1.051 5.386 3.156 7.476 2.105 2.105 4.611 3.157 7.522 3.157 2.893 0 5.416-1.06 7.567-3.18 2.042-1.981 3.064-4.465 3.064-7.452 0-2.971-1.037-5.478-3.11-7.521-2.059-2.09-4.566-3.135-7.52-3.135zM12.978 0c3.637 0 6.716 1.261 9.24 3.784C24.738 6.29 26 9.362 26 13c0 3.637-1.239 6.685-3.716 9.146C19.67 24.716 16.566 26 12.977 26c-3.514 0-6.562-1.277-9.147-3.831C1.277 19.616 0 16.559 0 13c0-3.544 1.277-6.615 3.83-9.215C6.354 1.26 9.403 0 12.977 0z"/>
</svg>
