<svg xmlns="http://www.w3.org/2000/svg" width="26" height="26" viewBox="0 0 26 26">
    <path fill="#CECECE" fill-rule="evenodd" d="M20.59 20.451c-2.15 2.121-4.673 3.18-7.566 3.18-2.91 0-5.417-1.051-7.522-3.156-2.105-2.09-3.157-4.58-3.157-7.475 0-2.863 1.06-5.37 3.18-7.521 2.044-2.09 4.544-3.134 7.5-3.134 2.954 0 5.46 1.044 7.52 3.134 2.072 2.043 3.11 4.55 3.11 7.52 0 2.988-1.022 5.472-3.064 7.452m1.625-16.667C24.738 6.291 26 9.362 26 13c0 3.637-1.238 6.685-3.715 9.146C19.669 24.715 16.566 26 12.976 26c-3.513 0-6.562-1.277-9.145-3.831C1.277 19.616 0 16.559 0 13c0-3.544 1.277-6.616 3.83-9.215C6.355 1.262 9.403 0 12.978 0c3.637 0 6.716 1.262 9.24 3.784zm-9.42 6.966c-.041-.08-.065-.127-.092-.174-1.184-2.048-4.23-2.074-5.63-.954-1.567 1.255-1.943 4.026-.75 5.74.975 1.399 3.125 1.913 4.752 1.135.759-.363 1.347-.903 1.745-1.675l-1.572-.796c-.054.096-.094.161-.13.228-.345.634-.893.904-1.596.86-.682-.042-1.132-.422-1.36-1.05-.29-.798-.28-1.611-.02-2.412.2-.62.65-.968 1.3-1.026.616-.055 1.098.196 1.448.702.067.098.13.198.203.312l1.702-.89zm5.691.89l1.659-.878c-.016-.067-.017-.09-.027-.109a1.42 1.42 0 0 0-.065-.115c-.669-1.086-1.684-1.564-2.916-1.642-1.372-.088-2.536.331-3.38 1.462-.532.712-.715 1.541-.725 2.41-.012 1.03.171 2.01.86 2.83 1.336 1.593 4.036 1.694 5.574.199.285-.278.513-.615.79-.953l-1.64-.82-.131.238c-.35.63-.898.9-1.602.852-.682-.048-1.129-.43-1.352-1.06-.296-.835-.3-1.684.027-2.505.433-1.089 1.923-1.269 2.64-.337.094.123.174.256.288.427z"/>
</svg>
