<svg xmlns="http://www.w3.org/2000/svg" width="26" height="26" viewBox="0 0 26 26">
    <path fill="#CECECE" fill-rule="evenodd" d="M11.189 6.43c0-1.221.603-1.833 1.811-1.833s1.81.61 1.81 1.834c0 1.207-.603 1.81-1.81 1.81s-1.811-.603-1.811-1.81m5.317 3.342v5.316H15.02v6.314h-4.04v-6.314H9.496V9.773c0-.232.082-.43.244-.592a.809.809 0 0 1 .592-.243h5.34c.216 0 .41.08.58.243a.79.79 0 0 1 .255.592m-3.483-7.428c-2.956 0-5.455 1.037-7.498 3.11-2.12 2.167-3.18 4.683-3.18 7.545 0 2.88 1.052 5.371 3.156 7.475 2.105 2.105 4.612 3.157 7.521 3.157 2.894 0 5.417-1.06 7.568-3.18 2.043-1.966 3.065-4.45 3.065-7.452 0-2.956-1.037-5.47-3.11-7.545-2.074-2.073-4.581-3.11-7.522-3.11M12.977 0c3.651 0 6.731 1.253 9.239 3.76C24.738 6.284 26 9.364 26 13c0 3.653-1.239 6.693-3.715 9.123C19.654 24.708 16.55 26 12.977 26c-3.514 0-6.562-1.277-9.146-3.83C1.277 19.614 0 16.56 0 13c0-3.56 1.277-6.639 3.83-9.239C6.339 1.253 9.387 0 12.978 0"/>
</svg>
