<svg xmlns="http://www.w3.org/2000/svg" width="26" height="26" viewBox="0 0 26 26">
    <path fill="#CECECE" fill-rule="evenodd" d="M25.976 12.229l.024.368v.806c-.003.025-.009.05-.01.076a12.916 12.916 0 0 1-1.285 5.178 12.991 12.991 0 0 1-3.264 4.225 12.965 12.965 0 0 1-5.21 2.713c-.816.208-1.644.338-2.485.383-.115.006-.229.015-.343.022h-.806c-.025-.004-.051-.008-.077-.01-.285-.02-.57-.031-.855-.059a12.887 12.887 0 0 1-4.955-1.555 12.98 12.98 0 0 1-3.8-3.184 12.883 12.883 0 0 1-2.886-7.42c-.007-.12-.016-.238-.024-.356v-.832c.003-.023.009-.046.01-.07.022-.663.098-1.32.223-1.972A12.814 12.814 0 0 1 1.69 6.59a12.983 12.983 0 0 1 3.737-4.156A12.876 12.876 0 0 1 12.17.023L12.467 0h.95c.027.003.054.009.082.01a12.817 12.817 0 0 1 3.934.767 12.922 12.922 0 0 1 4.525 2.805 12.913 12.913 0 0 1 2.885 4.054 12.811 12.811 0 0 1 1.133 4.593zM13.001 23.764c5.941 0 10.76-4.821 10.764-10.763.004-5.937-4.852-10.868-10.976-10.767C7.024 2.329 2.24 7.06 2.235 12.997c-.003 5.942 4.822 10.768 10.766 10.767zM18.955 9.44c.375.74.603 1.527.716 2.348.09.653.111 1.308.048 1.964-.142 1.465-.637 2.792-1.57 3.94a6.111 6.111 0 0 1-2.948 2.017 6.47 6.47 0 0 1-2.308.277 7.26 7.26 0 0 1-1.738-.288c-1.613-.487-2.8-1.475-3.53-3.001a6.727 6.727 0 0 1-.535-1.71c-.002-.008 0-.017 0-.028h3.375c.053.189.098.375.158.558.129.392.323.746.62 1.037.314.307.692.496 1.114.598.563.135 1.133.187 1.705.054.647-.15 1.173-.5 1.599-1.004.456-.543.72-1.177.862-1.866.124-.602.129-1.208.082-1.818a7.237 7.237 0 0 0-.237-1.419c-.139-.49-.338-.95-.657-1.35a2.575 2.575 0 0 0-1.624-.958c-.24-.042-.486-.053-.73-.065a4.907 4.907 0 0 0-.623 0c-1.18.09-2.16.912-2.344 2.138l.004.016h.906l-2.528 2.832-2.523-2.828h1.106c.005-.095.008-.183.014-.271a4.237 4.237 0 0 1 1.093-2.635c.665-.75 1.494-1.253 2.428-1.594.808-.294 1.643-.401 2.501-.38 1.031.027 2.014.24 2.93.722 1.172.618 2.038 1.536 2.634 2.714z"/>
</svg>
