<svg width="60" height="20" viewBox="0 0 60 20" xmlns="http://www.w3.org/2000/svg"><title>72CC4A9D-588B-4213-B56F-FFA43F68D365</title><g fill="none" fill-rule="evenodd"><rect fill="#FFF" width="60" height="20" rx="3"/><g fill="#2E2E2E"><path d="M13.39 9.57c-.013-1.451 1.173-2.157 1.227-2.19-.671-.99-1.712-1.127-2.078-1.137-.874-.093-1.722.53-2.167.53-.455 0-1.14-.521-1.88-.505-.95.015-1.84.572-2.328 1.437-1.007 1.766-.256 4.36.708 5.787.483.699 1.047 1.48 1.785 1.452.723-.03.992-.467 1.864-.467.863 0 1.117.467 1.87.45.775-.014 1.263-.703 1.729-1.408.557-.801.781-1.59.79-1.63-.018-.007-1.505-.58-1.52-2.32M11.968 5.304c.388-.491.654-1.16.58-1.84-.562.026-1.265.394-1.67.875-.358.424-.678 1.119-.595 1.772.631.048 1.28-.322 1.685-.807"/></g><g fill="#2E2E2E"><path d="M21.309 5.184c0-.344-.09-.607-.27-.79-.18-.184-.442-.275-.787-.275-.146 0-.271.01-.375.03v2.2c.058.009.163.013.315.013.356 0 .631-.1.826-.3.193-.202.29-.494.29-.878m.492-.013c0 .53-.157.928-.47 1.196-.29.247-.703.37-1.237.37-.265 0-.492-.011-.682-.034V3.809c.248-.04.515-.061.803-.061.509 0 .892.112 1.15.336.29.253.436.615.436 1.087M23.92 5.649a.969.969 0 0 0-.124-.504.46.46 0 0 0-.418-.254.466.466 0 0 0-.427.254.987.987 0 0 0-.125.512c0 .196.041.364.125.504.1.17.24.254.423.254.177 0 .317-.086.417-.259a.963.963 0 0 0 .13-.507m.483-.016c0 .326-.092.594-.276.803-.193.216-.449.324-.768.324-.307 0-.552-.104-.735-.31-.182-.207-.273-.467-.273-.782 0-.328.094-.597.282-.807.188-.21.442-.314.76-.314.309 0 .555.103.742.31.179.2.268.46.268.776M27.896 4.59l-.656 2.121h-.427l-.271-.92a6.926 6.926 0 0 1-.169-.686h-.008c-.04.233-.096.462-.168.685l-.289.921h-.431l-.617-2.12h.48l.236 1.008c.057.238.105.465.143.68h.008a7.67 7.67 0 0 1 .173-.676l.297-1.013h.379l.285.991c.069.242.125.474.168.698h.013c.031-.218.079-.45.142-.698l.255-.99h.457zM30.31 6.712h-.466V5.497c0-.375-.14-.562-.422-.562a.418.418 0 0 0-.336.155.551.551 0 0 0-.13.363v1.259h-.465V5.197c0-.186-.006-.388-.017-.607h.409l.022.331h.013a.677.677 0 0 1 .241-.255.776.776 0 0 1 .422-.12c.196 0 .358.065.488.193.16.157.241.39.241.702v1.27zM31.13 6.712h.5V3.617h-.5zM33.853 5.649a.969.969 0 0 0-.125-.504.459.459 0 0 0-.417-.254.465.465 0 0 0-.427.254.987.987 0 0 0-.125.512c0 .196.041.364.125.504.1.17.24.254.423.254.177 0 .316-.086.417-.259a.959.959 0 0 0 .13-.507m.483-.016c0 .326-.092.594-.276.803-.193.216-.449.324-.768.324-.308 0-.553-.104-.735-.31-.182-.207-.273-.467-.273-.782 0-.328.094-.597.282-.807.188-.21.442-.314.76-.314.309 0 .555.103.742.31.179.2.268.46.268.776M36.108 5.983v-.328c-.514-.009-.771.134-.771.428 0 .11.03.193.09.249.06.055.135.083.227.083a.462.462 0 0 0 .284-.099.4.4 0 0 0 .17-.333m.483.729h-.418l-.035-.245h-.013c-.143.195-.347.293-.612.293a.607.607 0 0 1-.642-.624c0-.26.106-.457.32-.594.215-.137.517-.204.905-.201V5.3c0-.279-.146-.418-.435-.418a.96.96 0 0 0-.546.157l-.095-.31c.194-.122.435-.183.719-.183.547 0 .822.292.822.877v.781c0 .213.01.381.03.507M38.755 5.817v-.354a.538.538 0 0 0-.181-.434.455.455 0 0 0-.312-.116c-.173 0-.31.07-.41.21-.099.14-.149.319-.149.536 0 .21.048.38.143.512.101.139.237.209.407.209a.447.447 0 0 0 .368-.175.588.588 0 0 0 .134-.388m.483.894h-.413l-.022-.34h-.013c-.132.259-.357.389-.673.389a.785.785 0 0 1-.63-.301c-.166-.202-.25-.462-.25-.782 0-.343.091-.621.272-.834a.83.83 0 0 1 .647-.297c.281 0 .479.097.59.288h.01V3.617h.465V6.14c0 .206.006.397.017.571"/></g><g fill="#2E2E2E"><path d="M42.739 5.649a.969.969 0 0 0-.125-.504c-.098-.169-.237-.254-.419-.254a.467.467 0 0 0-.427.254.987.987 0 0 0-.125.512c0 .196.042.364.125.504.1.17.241.254.423.254.178 0 .317-.086.418-.259a.967.967 0 0 0 .13-.507m.482-.016c0 .326-.092.594-.276.803-.193.216-.448.324-.767.324-.307 0-.552-.104-.735-.31-.183-.207-.274-.467-.274-.782 0-.328.094-.597.283-.807.188-.21.441-.314.76-.314.308 0 .555.103.742.31.178.2.267.46.267.776M45.726 6.712h-.466V5.497c0-.375-.14-.562-.422-.562a.416.416 0 0 0-.336.155.551.551 0 0 0-.13.363v1.259h-.466V5.197c0-.186-.005-.388-.016-.607h.409l.021.331h.013a.684.684 0 0 1 .242-.255.778.778 0 0 1 .422-.12c.196 0 .358.065.487.193.162.157.242.39.242.702v1.27z"/></g><g fill="#2E2E2E"><path d="M48.86 4.944h-.513v1.03c0 .262.091.393.272.393a.831.831 0 0 0 .207-.022l.012.358a1.033 1.033 0 0 1-.361.052.553.553 0 0 1-.431-.17c-.104-.114-.156-.304-.156-.572v-1.07h-.306V4.59h.306v-.388l.457-.14v.528h.513v.354zM51.326 6.712h-.466V5.506c0-.38-.14-.571-.422-.571-.216 0-.363.11-.444.331a.6.6 0 0 0-.022.17v1.276h-.465V3.617h.465v1.278h.01a.702.702 0 0 1 .628-.348c.193 0 .353.064.48.192.157.16.236.397.236.711v1.262zM53.425 5.428a.641.641 0 0 0-.09-.362.406.406 0 0 0-.37-.197.44.44 0 0 0-.371.193.72.72 0 0 0-.138.366h.97zm.445.122c0 .085-.006.156-.018.214h-1.396c.006.21.072.37.202.48.118.1.27.15.458.15.206 0 .394-.035.564-.102l.073.328c-.198.087-.432.13-.703.13-.324 0-.58-.096-.764-.29-.186-.193-.278-.453-.278-.779 0-.32.086-.586.259-.799a.886.886 0 0 1 .732-.34c.301 0 .53.114.685.34.124.18.186.404.186.668z"/></g><g fill="#2E2E2E"><path d="M22.114 12.346l-.5-1.563c-.053-.16-.153-.536-.3-1.128h-.016c-.06.254-.153.63-.281 1.128l-.492 1.563h1.589zm1.728 2.498h-1.009l-.553-1.76h-1.922l-.526 1.76h-.983l1.904-5.99h1.176l1.913 5.99zM27.773 12.666c0-.42-.093-.766-.28-1.04a.967.967 0 0 0-.825-.426.976.976 0 0 0-.636.236 1.09 1.09 0 0 0-.373.618c-.03.118-.044.216-.044.292v.72c0 .315.095.58.285.796a.94.94 0 0 0 .741.324c.357 0 .635-.14.834-.418.199-.278.298-.645.298-1.102m.966-.035c0 .735-.196 1.315-.588 1.741-.351.38-.787.57-1.308.57-.561 0-.965-.205-1.21-.614h-.018v2.275h-.948v-4.656c0-.462-.012-.936-.035-1.422h.833l.053.685h.018c.316-.516.795-.773 1.439-.773.503 0 .923.2 1.26.604.335.403.504.933.504 1.59M32.679 12.666c0-.42-.094-.766-.282-1.04a.966.966 0 0 0-.824-.426.976.976 0 0 0-.636.236c-.19.157-.314.363-.373.618-.03.118-.044.216-.044.292v.72c0 .315.095.58.285.796.19.216.437.324.742.324.357 0 .634-.14.833-.418.199-.278.299-.645.299-1.102m.965-.035c0 .735-.196 1.315-.588 1.741-.351.38-.787.57-1.308.57-.561 0-.965-.205-1.21-.614h-.018v2.275h-.947v-4.656c0-.462-.012-.936-.036-1.422h.834l.053.685h.017c.316-.516.795-.773 1.44-.773.502 0 .922.2 1.259.604.336.403.504.933.504 1.59M39.128 13.164c0 .51-.174.924-.525 1.244-.385.35-.922.524-1.611.524-.636 0-1.147-.124-1.533-.373l.22-.8a2.57 2.57 0 0 0 1.37.383c.356 0 .634-.082.834-.245a.802.802 0 0 0 .297-.654.838.838 0 0 0-.245-.614c-.163-.167-.436-.32-.816-.464-1.036-.39-1.553-.963-1.553-1.717 0-.492.182-.896.544-1.21.362-.315.845-.472 1.448-.472.538 0 .986.095 1.342.284l-.237.782a2.306 2.306 0 0 0-1.132-.275c-.333 0-.594.083-.78.249a.715.715 0 0 0-.237.542c0 .237.09.432.272.586.158.142.444.296.86.462.509.208.882.45 1.123.728.24.28.36.626.36 1.04M42.261 11.245h-1.044v2.097c0 .533.184.8.553.8.17 0 .31-.015.421-.045l.026.729c-.187.07-.432.106-.737.106-.374 0-.667-.115-.877-.346-.21-.231-.316-.62-.316-1.164v-2.177h-.623v-.72h.623v-.79l.93-.285v1.075h1.044v.72zM45.99 12.68c0-.398-.084-.74-.254-1.025-.199-.344-.482-.517-.85-.517-.382 0-.67.173-.87.517-.17.285-.254.633-.254 1.043 0 .398.084.74.255 1.024.205.345.49.517.86.517.362 0 .645-.175.85-.525.176-.291.263-.636.263-1.034m.984-.031c0 .663-.188 1.208-.562 1.634-.392.44-.913.658-1.562.658-.626 0-1.124-.21-1.496-.63-.372-.421-.557-.951-.557-1.59 0-.67.19-1.218.574-1.644.383-.427.9-.64 1.55-.64.625 0 1.129.21 1.509.63.363.41.544.936.544 1.582M50.054 11.37a1.626 1.626 0 0 0-.299-.027c-.333 0-.591.127-.772.382-.159.225-.237.51-.237.853v2.266h-.947l.008-2.96c0-.497-.012-.95-.035-1.359h.825l.035.827h.026c.1-.284.258-.513.474-.684.21-.154.44-.231.685-.231.087 0 .167.006.237.017v.915zM53.388 12.231a1.316 1.316 0 0 0-.184-.737c-.164-.267-.416-.4-.755-.4-.31 0-.562.13-.755.391a1.436 1.436 0 0 0-.28.746h1.974zm.904.25c0 .171-.012.316-.035.434h-2.843c.011.427.149.753.412.978.24.201.55.302.93.302.42 0 .805-.068 1.15-.205l.149.667c-.404.178-.88.266-1.43.266-.661 0-1.18-.196-1.558-.59-.377-.394-.566-.923-.566-1.586 0-.652.175-1.194.527-1.627.368-.461.865-.692 1.491-.692.615 0 1.08.23 1.396.692.25.368.377.821.377 1.36z"/></g></g></svg>