<svg width="60" height="20" viewBox="0 0 60 20" xmlns="http://www.w3.org/2000/svg"><title>6E891F5E-B0B8-4DA6-B732-B5136D15D96F</title><defs><linearGradient x1="100%" y1="50%" x2="-156.548%" y2="50%" id="a"><stop stop-color="#FFDF00" offset="0%"/><stop stop-color="#F89B1B" offset="100%"/></linearGradient><linearGradient x1="86.836%" y1="16.796%" x2="-50.993%" y2="148.347%" id="b"><stop stop-color="#EE4447" offset="0%"/><stop stop-color="#C5156C" offset="100%"/></linearGradient><linearGradient x1="-83.463%" y1="-121.461%" x2="50%" y2="50%" id="c"><stop stop-color="#259D6F" offset="0%"/><stop stop-color="#74C068" offset="100%"/></linearGradient></defs><g fill="none" fill-rule="evenodd"><rect fill="#FFF" width="60" height="20" rx="3"/><path d="M21.075 5.276c0 .377-.11.677-.331.902-.251.266-.578.4-.98.4-.385 0-.712-.136-.981-.406a1.365 1.365 0 0 1-.404-1.005c0-.4.134-.735.404-1.005.269-.27.596-.405.981-.405.19 0 .374.037.547.112.174.076.313.176.418.302l-.235.238c-.176-.214-.42-.32-.73-.32-.28 0-.523.1-.728.299-.205.2-.307.46-.307.779s.102.579.307.778c.205.2.447.3.728.3.298 0 .546-.1.745-.301.129-.131.204-.313.223-.547h-.968v-.325h1.292c.013.071.019.138.019.204M23.123 4.148H21.91v.856h1.095v.325h-1.095v.856h1.214v.332h-1.556v-2.7h1.556zM24.568 6.517h-.342V4.148h-.745v-.331h1.832v.331h-.745zM26.64 6.517h.385v-2.7h-.386zM28.501 6.517h-.342V4.148h-.745v-.331h1.832v.331h-.745zM31.013 5.942a.972.972 0 0 0 .724.303c.286 0 .528-.1.725-.303.197-.203.296-.461.296-.775s-.099-.573-.296-.775a.973.973 0 0 0-.725-.304.972.972 0 0 0-.724.304c-.197.202-.296.46-.296.775 0 .314.1.572.296.775m1.702.226a1.3 1.3 0 0 1-.978.41c-.39 0-.715-.137-.977-.41a1.389 1.389 0 0 1-.393-1.001c0-.395.13-.729.393-1.001a1.3 1.3 0 0 1 .977-.41 1.3 1.3 0 0 1 .976.411c.264.274.395.607.395 1 0 .394-.131.728-.393 1M33.589 6.517v-2.7h.417l1.296 2.1h.015l-.015-.52v-1.58h.343v2.7h-.358l-1.355-2.203h-.016l.016.521v1.682zM47.527 14.167h.829V8.54h-.829v5.626zm7.47-3.6l-.95 2.44h-.03l-.986-2.44h-.893l1.48 3.41-.844 1.896h.865l2.28-5.305h-.922zm-4.704 2.96c-.27 0-.65-.137-.65-.477 0-.434.472-.6.88-.6.364 0 .536.08.757.188a1.01 1.01 0 0 1-.987.89zm.1-3.082c-.6 0-1.221.267-1.479.861l.736.311c.158-.311.45-.412.758-.412.429 0 .865.26.872.723v.058a1.824 1.824 0 0 0-.865-.217c-.794 0-1.601.442-1.601 1.266 0 .753.65 1.238 1.38 1.238.557 0 .865-.253 1.057-.55h.029v.435h.8V12c0-1-.736-1.556-1.686-1.556zm-5.125.807h-1.18V9.324h1.18c.62 0 .972.52.972.964 0 .436-.352.964-.972.964zm-.02-2.71H43.26v5.625h.829v-2.132h1.158c.92 0 1.823-.673 1.823-1.747 0-1.073-.904-1.747-1.823-1.747zM34.41 13.528c-.573 0-1.052-.486-1.052-1.153 0-.674.48-1.167 1.052-1.167.565 0 1.01.493 1.01 1.167 0 .667-.445 1.153-1.01 1.153zm.952-2.646h-.028c-.187-.225-.545-.428-.995-.428-.946 0-1.812.841-1.812 1.921 0 1.073.866 1.907 1.812 1.907.45 0 .808-.203.995-.435h.028v.275c0 .733-.387 1.124-1.01 1.124-.508 0-.823-.37-.952-.682l-.723.305c.208.508.759 1.13 1.676 1.13.974 0 1.797-.58 1.797-1.993v-3.436h-.788v.312zm1.361 3.284h.83V8.54h-.83v5.626zm2.055-1.856c-.022-.74.565-1.117.988-1.117.33 0 .609.167.702.406l-1.69.71zm2.577-.638c-.157-.428-.637-1.218-1.618-1.218-.974 0-1.783.776-1.783 1.914 0 1.073.802 1.914 1.876 1.914.866 0 1.368-.537 1.576-.848l-.645-.436c-.215.32-.508.53-.93.53-.423 0-.724-.196-.917-.58l2.527-1.058-.086-.218zm-20.136-.63v.811h1.918c-.057.457-.207.79-.436 1.022-.28.283-.717.595-1.482.595-1.182 0-2.106-.964-2.106-2.16 0-1.197.924-2.16 2.106-2.16.637 0 1.102.253 1.446.58l.566-.574c-.48-.464-1.117-.82-2.012-.82-1.62 0-2.98 1.335-2.98 2.974 0 1.638 1.36 2.972 2.98 2.972.873 0 1.532-.29 2.047-.834.53-.536.695-1.29.695-1.9 0-.188-.014-.362-.043-.507h-2.7zm4.923 2.486c-.572 0-1.067-.479-1.067-1.16 0-.689.495-1.16 1.067-1.16.573 0 1.067.471 1.067 1.16 0 .681-.494 1.16-1.067 1.16zm0-3.074c-1.045 0-1.897.805-1.897 1.914 0 1.102.852 1.914 1.897 1.914a1.88 1.88 0 0 0 1.898-1.914c0-1.11-.852-1.914-1.898-1.914zm4.14 3.074c-.573 0-1.067-.479-1.067-1.16 0-.689.494-1.16 1.067-1.16s1.066.471 1.066 1.16c0 .681-.493 1.16-1.066 1.16zm0-3.074c-1.046 0-1.898.805-1.898 1.914 0 1.102.852 1.914 1.898 1.914a1.879 1.879 0 0 0 1.897-1.914c0-1.11-.852-1.914-1.897-1.914z" fill="#7E7E7F"/><path d="M4.638 4.063c-.13.139-.206.353-.206.632v9.943c0 .279.076.494.206.632l.033.033 5.501-5.57V9.6l-5.501-5.57-.033.032z" fill="#5BC8F3"/><path d="M6.172 6.268v.131l1.834 1.858.042-.025 2.173-1.25c.62-.357.62-.941 0-1.298l-2.173-1.25-.042-.024-1.834 1.858z" fill="url(#a)" transform="translate(4 3.333)"/><path d="M.638 11.937c.204.22.542.246.923.028l6.487-3.733-1.876-1.899-5.534 5.604z" fill="url(#b)" transform="translate(4 3.333)"/><path d="M.638.73l5.534 5.603 1.876-1.899L1.561.702a1.01 1.01 0 0 0-.498-.151.564.564 0 0 0-.425.179L4 3.183" fill="url(#c)" transform="translate(4 3.333)"/></g></svg>