<svg width="20" height="20" viewBox="0 0 20 20" xmlns="http://www.w3.org/2000/svg" xmlns:xlink="http://www.w3.org/1999/xlink"><title>0AA14C26-16CE-4CBF-9953-8794A9E3AD3D</title><defs><rect id="a" width="20" height="20" rx="3"/><mask id="b" x="0" y="0" width="20" height="20" fill="#fff"><use xlink:href="#a"/></mask><mask id="c" x="0" y="0" width="20" height="20" fill="#fff"><use xlink:href="#a"/></mask></defs><g fill="none" fill-rule="evenodd"><mask id="d" fill="#fff"><use xlink:href="#a"/></mask><g stroke="#FFF" mask="url(#b)" stroke-width="2"><use mask="url(#c)" xlink:href="#a"/></g><g mask="url(#d)" fill="#FFF"><path d="M9.984 3.028c-1.897 0-2.135.008-2.88.042-.743.034-1.25.152-1.695.324-.459.179-.849.418-1.237.806a3.423 3.423 0 0 0-.805 1.237c-.173.444-.291.952-.325 1.695-.034.745-.042.983-.042 2.88 0 1.896.008 2.134.042 2.88.034.742.152 1.25.325 1.694.178.46.417.85.805 1.237.388.389.778.627 1.237.806.444.173.952.29 1.695.325.745.034.983.042 2.88.042 1.897 0 2.134-.008 2.88-.042.743-.034 1.25-.152 1.695-.325.459-.179.848-.417 1.237-.806.388-.388.627-.777.805-1.237.173-.444.291-.952.325-1.695.034-.745.042-.983.042-2.88 0-1.896-.008-2.134-.042-2.879-.034-.743-.152-1.25-.325-1.695a3.423 3.423 0 0 0-.805-1.237 3.423 3.423 0 0 0-1.237-.806c-.445-.172-.952-.29-1.696-.324-.745-.034-.982-.042-2.88-.042m0 1.258c1.866 0 2.087.007 2.823.04.681.032 1.05.146 1.297.241.326.127.559.278.803.523.244.244.396.477.522.803.096.246.21.616.24 1.297.034.736.041.957.041 2.822 0 1.864-.007 2.085-.04 2.822-.031.68-.145 1.05-.24 1.297a2.164 2.164 0 0 1-.523.803 2.164 2.164 0 0 1-.803.522c-.246.096-.616.21-1.297.24-.736.034-.957.041-2.822.041-1.865 0-2.086-.007-2.822-.04-.681-.032-1.05-.145-1.297-.241a2.164 2.164 0 0 1-.803-.522 2.164 2.164 0 0 1-.522-.803c-.096-.247-.21-.616-.24-1.297-.035-.737-.042-.958-.042-2.822 0-1.865.007-2.086.041-2.822.031-.681.145-1.051.24-1.297.127-.326.279-.559.523-.803.244-.245.477-.396.803-.523.246-.095.616-.21 1.297-.24.736-.034.957-.04 2.822-.04"/><path d="M9.984 12.34a2.328 2.328 0 1 1 0-4.656 2.328 2.328 0 0 1 0 4.656m0-5.915a3.586 3.586 0 1 0 0 7.173 3.586 3.586 0 0 0 0-7.173M14.55 6.284a.838.838 0 1 1-1.676 0 .838.838 0 0 1 1.676 0"/></g></g></svg>