<svg width="15" height="15" viewBox="0 0 15 15" xmlns="http://www.w3.org/2000/svg"><title>11C0D84F-BCF4-410E-A753-69C0849500C1</title><g fill="none" fill-rule="evenodd"><path fill="none" d="M0 0h15v15H0z"/><g fill="#bdc3c7"><path d="M7.5 0a2.812 2.812 0 1 0 0 5.625A2.812 2.812 0 0 0 7.5 0m0 1.5c.724 0 1.313.59 1.313 1.313 0 .722-.59 1.312-1.313 1.312-.724 0-1.313-.59-1.313-1.313 0-.722.59-1.312 1.313-1.312M1.5 14.063c0-3.309 2.692-6 6-6 3.309 0 6 2.691 6 6V15H15v-.938c0-4.124-3.375-7.5-7.5-7.5S0 9.938 0 14.063V15h1.5v-.938z"/></g></g></svg>