<svg width="15" height="15" viewBox="0 0 15 15" xmlns="http://www.w3.org/2000/svg"><title>8FC8049E-8762-4A0E-8369-7695AE6BC76D</title><g fill="none" fill-rule="evenodd"><path fill="none" d="M0 0h15v15H0z"/><g fill="#bdc3c7"><path d="M7.5 0a7.5 7.5 0 1 0 0 15 7.5 7.5 0 0 0 0-15m0 1.5c3.308 0 6 2.692 6 6s-2.692 6-6 6-6-2.692-6-6 2.692-6 6-6"/><path d="M7.969 9.7v-.607H7.03V9.7a2.255 2.255 0 0 1-1.73-1.73h.605V7.03h-.605a2.254 2.254 0 0 1 1.73-1.73v.605h.938v-.605a2.254 2.254 0 0 1 1.73 1.73H9v.937h.7A2.255 2.255 0 0 1 7.968 9.7zm3.843-2.669h-.609A3.728 3.728 0 0 0 7.97 3.798v-.705H7.03v.705A3.728 3.728 0 0 0 3.797 7.03h-.703v.937h.703a3.728 3.728 0 0 0 3.234 3.235v.703h.938v-.703a3.728 3.728 0 0 0 3.234-3.235h.61v-.937z"/></g></g></svg>