<?xml version="1.0" encoding="utf-8"?>
<!-- Generator: Adobe Illustrator 21.1.0, SVG Export Plug-In . SVG Version: 6.00 Build 0)  -->
<svg version="1.1" id="圖層_1" xmlns="http://www.w3.org/2000/svg" xmlns:xlink="http://www.w3.org/1999/xlink" x="0px" y="0px"
	 viewBox="0 0 254 221" style="enable-background:new 0 0 254 221;" xml:space="preserve">
<style type="text/css">
	.st0{opacity:0.2;fill:#FFFFFF;}
</style>
<path class="st0" d="M4.5,220c-1.6,0-2.9-1.3-2.9-2.9c0-1.6,1.3-2.9,2.9-2.9h12.2c0.5,0,0.8-0.4,0.8-0.8v-87.8
	c0-0.4-0.3-0.7-0.6-0.8c-6.6-1.6-11.3-7.5-11.3-14.3v-7.9c0-0.1,0-0.2,0-0.3c0-0.1,0-0.2,0-0.3c0-0.1,0-0.2,0.1-0.2c0,0,0,0,0,0
	c0-0.1,0-0.1,0.1-0.2c0,0,0-0.1,0-0.1c0,0,0-0.1,0.1-0.1l0-0.1c0,0,0.2-0.3,0.2-0.3c0,0,0,0,0,0c0.1-0.1,0.1-0.1,0.1-0.2
	c0,0,0,0,0.1-0.1c0-0.1,0.1-0.1,0.1-0.2c0.1-0.1,0.1-0.1,0.2-0.2c0.1-0.1,0.2-0.1,0.2-0.2c0.1-0.1,0.2-0.1,0.2-0.1l117.1-62.1
	c0.3-0.1,0.4-0.4,0.4-0.7V3.9c0-1.6,1.3-2.9,2.9-2.9h43.7c1.2,0,2.2,0.7,2.7,1.8c0.5,1.1,0.2,2.3-0.6,3.1l-9.3,9.2
	c-0.2,0.2-0.2,0.4-0.2,0.6c0,0.2,0.1,0.4,0.2,0.6l9.3,9.2c0.8,0.8,1.1,2.1,0.6,3.1c-0.5,1.1-1.5,1.8-2.7,1.8h-39.9
	c-0.5,0-0.8,0.4-0.8,0.8v5.9c0,0.3,0.2,0.6,0.4,0.7L248,100.1c0.1,0,0.2,0.1,0.2,0.1c0,0,0,0,0,0c0.1,0.1,0.2,0.1,0.2,0.2
	c0.1,0.1,0.1,0.1,0.2,0.2c0,0,0,0,0.1,0.1c0,0,0.2,0.2,0.2,0.2c0,0,0.2,0.2,0.2,0.2c0,0,0.1,0.2,0.1,0.2l0,0.1
	c0,0.1,0.1,0.1,0.1,0.2l0,0c0,0,0,0.1,0,0.1c0,0.1,0,0.1,0.1,0.2c0,0,0,0,0,0c0,0.1,0.1,0.2,0.1,0.3c0,0.1,0,0.2,0,0.3
	c0,0.1,0,0.2,0,0.3v7.9c0,6.8-4.6,12.7-11.3,14.3c-0.4,0.1-0.6,0.4-0.6,0.8v87.8c0,0.4,0.4,0.8,0.8,0.8h12.2c1.6,0,2.9,1.3,2.9,2.9
	c0,1.6-1.3,2.9-2.9,2.9H4.5z M222.8,119.7c-0.2,0-0.5,0.1-0.6,0.3c-2,2.4-4.7,4-7.8,4.8c-0.4,0.1-0.6,0.4-0.6,0.8v87.8
	c0,0.4,0.4,0.8,0.8,0.8H231c0.5,0,0.8-0.4,0.8-0.8v-87.8c0-0.4-0.3-0.7-0.6-0.8c-3-0.7-5.7-2.4-7.8-4.8
	C223.3,119.8,223,119.7,222.8,119.7z M199,119.7c-0.2,0-0.5,0.1-0.6,0.3c-2,2.4-4.7,4-7.8,4.8c-0.4,0.1-0.6,0.4-0.6,0.8v87.8
	c0,0.4,0.4,0.8,0.8,0.8h16.4c0.5,0,0.8-0.4,0.8-0.8v-87.8c0-0.4-0.3-0.7-0.6-0.8c-3-0.7-5.7-2.4-7.8-4.8
	C199.4,119.8,199.2,119.7,199,119.7L199,119.7z M175.2,119.7c-0.2,0-0.5,0.1-0.6,0.3c-2,2.4-4.7,4-7.7,4.8c-0.4,0.1-0.6,0.4-0.6,0.8
	c0.4,43.1,8.6,78.3,11.1,88c0.1,0.4,0.4,0.6,0.8,0.6h5.3c0.5,0,0.8-0.4,0.8-0.8v-87.8c0-0.4-0.3-0.7-0.6-0.8c-3-0.7-5.7-2.4-7.8-4.8
	C175.6,119.8,175.4,119.7,175.2,119.7L175.2,119.7z M151.3,119.7c-0.2,0-0.5,0.1-0.6,0.3c-2,2.3-4.6,4-7.6,4.7
	c-0.4,0.1-0.6,0.5-0.6,0.8c0.9,13,5.3,57.8,22.2,88.2c0.1,0.3,0.4,0.4,0.7,0.4h4.9c0.3,0,0.5-0.1,0.6-0.3c0.2-0.2,0.2-0.5,0.2-0.7
	c-3.1-12.7-10.4-46.5-10.8-87.6c0-0.4-0.3-0.7-0.6-0.8c-3-0.7-5.7-2.4-7.8-4.8C151.8,119.8,151.6,119.7,151.3,119.7z M127.5,119.7
	c-0.2,0-0.5,0.1-0.6,0.3c-2.1,2.4-4.9,4.1-7.9,4.8c-0.4,0.1-0.6,0.4-0.6,0.7c-0.4,5.5-1.4,16.9-3.8,30.9
	c-3.9,22.7-9.7,41.8-17.3,56.5c-0.1,0.3-0.1,0.6,0,0.8c0.1,0.2,0.4,0.4,0.7,0.4h59c0.3,0,0.6-0.1,0.7-0.4c0.2-0.2,0.2-0.5,0-0.8
	c-7.5-14.8-13.3-33.8-17.2-56.5c-2.4-14-3.4-25.4-3.8-30.9c0-0.4-0.3-0.7-0.6-0.7c-3.1-0.7-5.9-2.4-7.9-4.8
	C128,119.8,127.8,119.7,127.5,119.7z M103.7,119.7c-0.2,0-0.5,0.1-0.6,0.3c-2,2.4-4.7,4-7.8,4.8c-0.4,0.1-0.6,0.4-0.6,0.8
	c-0.4,41.1-7.7,75-10.8,87.6c-0.1,0.2,0,0.5,0.2,0.7c0.2,0.2,0.4,0.3,0.6,0.3h4.9c0.3,0,0.6-0.2,0.7-0.4
	c16.9-30.4,21.2-75.2,22.2-88.2c0-0.4-0.2-0.7-0.6-0.8c-3-0.8-5.6-2.4-7.6-4.7C104.2,119.8,103.9,119.7,103.7,119.7z M79.9,119.7
	c-0.2,0-0.5,0.1-0.6,0.3c-2,2.4-4.7,4-7.8,4.8c-0.4,0.1-0.6,0.4-0.6,0.8v87.8c0,0.4,0.4,0.8,0.8,0.8H77c0.4,0,0.7-0.3,0.8-0.6
	c2.5-9.7,10.7-44.9,11.1-88c0-0.4-0.3-0.7-0.6-0.8c-3-0.7-5.7-2.4-7.7-4.8C80.4,119.8,80.1,119.7,79.9,119.7L79.9,119.7z
	 M56.1,119.7c-0.2,0-0.5,0.1-0.6,0.3c-2,2.4-4.7,4-7.8,4.8c-0.4,0.1-0.6,0.4-0.6,0.8v87.8c0,0.4,0.4,0.8,0.8,0.8h16.4
	c0.5,0,0.8-0.4,0.8-0.8v-87.8c0-0.4-0.3-0.7-0.6-0.8c-3-0.7-5.7-2.4-7.8-4.8C56.5,119.8,56.3,119.7,56.1,119.7z M32.2,119.7
	c-0.2,0-0.5,0.1-0.6,0.3c-2,2.4-4.7,4-7.8,4.8c-0.4,0.1-0.6,0.4-0.6,0.8v87.8c0,0.4,0.4,0.8,0.8,0.8h16.4c0.5,0,0.8-0.4,0.8-0.8
	v-87.8c0-0.4-0.3-0.7-0.6-0.8c-3-0.7-5.7-2.4-7.8-4.8C32.7,119.8,32.5,119.7,32.2,119.7z M226.5,105.5c-0.5,0-0.8,0.4-0.8,0.8v4.2
	c0,4.9,4,9,9,9c5,0,9-4,9-9v-4.2c0-0.4-0.4-0.8-0.8-0.8H226.5z M202.7,105.5c-0.5,0-0.8,0.4-0.8,0.8v4.2c0,4.9,4,9,9,9c5,0,9-4,9-9
	v-4.2c0-0.4-0.4-0.8-0.8-0.8H202.7z M178.9,105.5c-0.5,0-0.8,0.4-0.8,0.8v4.2c0,4.9,4,9,9,9c5,0,9-4,9-9v-4.2c0-0.4-0.4-0.8-0.8-0.8
	H178.9z M155.1,105.5c-0.5,0-0.8,0.4-0.8,0.8v4.2c0,4.9,4,9,9,9c5,0,9-4,9-9v-4.2c0-0.4-0.4-0.8-0.8-0.8H155.1z M131.2,105.5
	c-0.5,0-0.8,0.4-0.8,0.8v4.2c0,4.9,4,9,9,9c5,0,9-4,9-9v-4.2c0-0.4-0.4-0.8-0.8-0.8H131.2z M107.4,105.5c-0.5,0-0.8,0.4-0.8,0.8v4.2
	c0,4.9,4,9,9,9c5,0,9-4,9-9v-4.2c0-0.4-0.4-0.8-0.8-0.8H107.4z M83.6,105.5c-0.5,0-0.8,0.4-0.8,0.8v4.2c0,4.9,4,9,9,9c5,0,9-4,9-9
	v-4.2c0-0.4-0.4-0.8-0.8-0.8H83.6z M59.8,105.5c-0.5,0-0.8,0.4-0.8,0.8v4.2c0,4.9,4,9,9,9c5,0,9-4,9-9v-4.2c0-0.4-0.4-0.8-0.8-0.8
	H59.8z M36,105.5c-0.5,0-0.8,0.4-0.8,0.8v4.2c0,4.9,4,9,9,9c5,0,9-4,9-9v-4.2c0-0.4-0.4-0.8-0.8-0.8H36z M12.2,105.5
	c-0.5,0-0.8,0.4-0.8,0.8v4.2c0,4.9,4,9,9,9c5,0,9-4,9-9v-4.2c0-0.4-0.4-0.8-0.8-0.8H12.2z M192.7,77.4c-0.3,0-0.6,0.2-0.7,0.4
	c-0.2,0.4-0.1,0.9,0.2,1.1l31.2,20.7c0.1,0.1,0.3,0.1,0.5,0.1h7.8c0.4,0,0.7-0.3,0.8-0.6c0.1-0.4-0.1-0.7-0.4-0.9l-39-20.7
	C193,77.4,192.8,77.4,192.7,77.4z M143.5,53.7c-0.2,0-0.4,0.1-0.6,0.3c-0.3,0.3-0.3,0.7-0.1,1l33.5,44.4c0.2,0.2,0.4,0.3,0.7,0.3
	h33.5c0.4,0,0.7-0.2,0.8-0.6c0.1-0.3,0-0.7-0.3-0.9l-67-44.4C143.9,53.7,143.7,53.7,143.5,53.7z M131.2,49.7c-0.1,0-0.2,0-0.3,0
	c-0.3,0.1-0.6,0.4-0.6,0.8v48.4c0,0.4,0.4,0.8,0.8,0.8h36.5c0.3,0,0.6-0.2,0.7-0.5c0.1-0.3,0.1-0.6-0.1-0.9L131.9,50
	C131.7,49.8,131.5,49.7,131.2,49.7z M123.8,49.7c-0.3,0-0.5,0.1-0.7,0.3L86.7,98.4c-0.2,0.2-0.2,0.6-0.1,0.9
	c0.1,0.3,0.4,0.5,0.7,0.5h36.5c0.5,0,0.8-0.4,0.8-0.8V50.5c0-0.4-0.2-0.7-0.6-0.8C124,49.7,123.9,49.7,123.8,49.7z M111.5,53.7
	c-0.2,0-0.3,0-0.5,0.1l-67,44.4c-0.3,0.2-0.4,0.6-0.3,0.9c0.1,0.3,0.4,0.6,0.8,0.6H78c0.3,0,0.5-0.1,0.7-0.3L112.2,55
	c0.2-0.3,0.2-0.8-0.1-1C111.9,53.8,111.7,53.7,111.5,53.7z M62.3,77.4c-0.1,0-0.3,0-0.4,0.1l-39,20.7c-0.3,0.2-0.5,0.6-0.4,0.9
	c0.1,0.4,0.4,0.6,0.8,0.6h7.8c0.2,0,0.3,0,0.5-0.1l31.2-20.7c0.4-0.2,0.5-0.7,0.2-1.1C62.9,77.5,62.6,77.4,62.3,77.4z M131.2,6.8
	c-0.5,0-0.8,0.4-0.8,0.8v16.3c0,0.4,0.4,0.8,0.8,0.8h31c0.3,0,0.6-0.2,0.8-0.5c0.1-0.3,0.1-0.7-0.2-0.9l-5.6-5.5
	c-0.5-0.5-0.9-1.3-0.9-2s0.3-1.5,0.9-2l5.6-5.5c0.2-0.2,0.3-0.6,0.2-0.9c-0.1-0.3-0.4-0.5-0.8-0.5H131.2z"/>
</svg>
