<svg xmlns="http://www.w3.org/2000/svg" width="248" height="252" viewBox="0 0 248 252">
    <g fill="#FEFEFE" fill-rule="evenodd" opacity=".2">
        <path d="M147.18 191.299c18.696-32.433 36.074-78.963 36.074-110.2 0-22.66-5.824-43.294-16.398-58.105-2.545-3.564-5.32-6.739-8.285-9.511 28.202 11.096 46.997 36.521 46.997 67.617 0 15.32-7.367 36.445-20.746 59.486-10.486 18.059-23.937 36.139-37.642 50.713zm-10.8 3.48c8.683-32.282 17.087-81.325 17.087-113.68 0-22.262-2.542-42.53-7.156-57.066-1.836-5.795-3.844-10.246-5.908-13.654 7.682 3.195 14.656 8.948 20.369 16.949 9.68 13.556 15.009 32.653 15.009 53.772 0 32.382-19.675 82.228-39.401 113.679zm.16 43.004c0 3.431-2.794 6.22-6.227 6.22H118.38c-3.433 0-6.228-2.789-6.228-6.22v-10.12h24.389v10.12zM76.02 81.1c0-21.12 5.33-40.216 15.01-53.772 5.71-8.001 12.687-13.757 20.369-16.949-2.065 3.408-4.072 7.86-5.909 13.654-4.613 14.537-7.155 34.804-7.155 57.067 0 32.354 8.404 81.394 17.085 113.676-19.724-31.45-39.4-81.294-39.4-113.676zm-9.04 59.486C53.6 117.545 46.233 96.42 46.233 81.1c0-31.096 18.795-56.521 46.998-67.617-2.965 2.772-5.74 5.945-8.285 9.508C74.374 37.802 68.55 58.44 68.55 81.1c0 31.236 17.375 77.766 36.072 110.199-13.705-14.574-27.156-32.652-37.642-50.713zm50.483 79.613h13.767v-16.34h-13.767v16.34zM125.9 7.465c4.51 0 9.602 7.212 13.287 18.824 4.389 13.828 6.806 33.294 6.806 54.81 0 32.954-8.923 83.671-17.805 115.296h-4.576c-8.884-31.625-17.808-82.342-17.808-115.295 0-21.517 2.418-40.983 6.806-54.811 3.685-11.612 8.777-18.824 13.29-18.824zm61.475 14.922C171.342 7.952 149.511 0 125.901 0S80.459 7.952 64.423 22.387C47.875 37.29 38.76 58.14 38.76 81.1c0 35.217 33.888 89.526 66.65 121.689l1.089 1.07h3.49v16.34h-5.31v17.584c0 7.547 6.146 13.686 13.7 13.686h11.934c7.553 0 13.698-6.139 13.698-13.686v-17.584h-5.31v-16.34h6.6l1.09-1.07c32.76-32.163 66.648-86.472 66.648-121.69 0-22.96-9.113-43.81-25.663-58.712zM62.145 201.567H38.249a4.23 4.23 0 0 1-4.228-4.223c0-6.446-5.25-11.689-11.7-11.689h-7.965c-3.795 0-6.883-3.086-6.883-6.877 0-3.792 3.088-6.876 6.883-6.876h23.893a4.23 4.23 0 0 1 4.23 4.223c0 6.447 5.248 11.692 11.7 11.692h7.966c3.793 0 6.882 3.083 6.882 6.875s-3.089 6.875-6.882 6.875m0-21.216H54.18a4.231 4.231 0 0 1-4.23-4.226c0-6.444-5.248-11.688-11.701-11.688H14.356C6.439 164.437 0 170.87 0 178.777c0 7.91 6.44 14.342 14.356 14.342h7.965a4.23 4.23 0 0 1 4.227 4.225c0 6.444 5.248 11.689 11.701 11.689h23.896c7.915 0 14.354-6.434 14.354-14.341 0-7.91-6.44-14.34-14.354-14.34M178.96 204.613h53.1a4.23 4.23 0 0 1 4.226 4.223c0 6.447 5.25 11.69 11.701 11.69v-7.464a4.23 4.23 0 0 1-4.227-4.226c0-6.443-5.25-11.688-11.7-11.688h-53.1c-7.916 0-14.356 6.434-14.356 14.34 0 7.908 6.44 14.342 14.355 14.342h37.17a4.232 4.232 0 0 1 4.229 4.226c0 6.444 5.248 11.689 11.701 11.689h15.928v-7.466H232.06a4.23 4.23 0 0 1-4.23-4.223c0-6.446-5.248-11.691-11.7-11.691h-37.17c-3.795 0-6.882-3.085-6.882-6.876 0-3.791 3.087-6.876 6.882-6.876"/>
    </g>
</svg>
