<svg xmlns="http://www.w3.org/2000/svg" width="232" height="274" viewBox="0 0 232 274">
    <g fill="#FFF" fill-rule="evenodd" opacity=".3">
        <path d="M211.548 129.266c-7.478 0-13.562-6.073-13.562-13.538s6.084-13.538 13.562-13.538 13.561 6.073 13.561 13.538-6.083 13.538-13.561 13.538zm-40.283-17.625a2.182 2.182 0 0 1-1.617.717H129.69a2.178 2.178 0 0 1-2.017-1.353l-.086-.216a2.172 2.172 0 0 1 .463-2.393l28.231-28.182a2.18 2.18 0 0 1 3.23.165c6.933 8.504 11.187 18.733 12.303 29.583a2.173 2.173 0 0 1-.55 1.679zm-11.753 39.437a2.18 2.18 0 0 1-3.23.164l-28.23-28.182a2.17 2.17 0 0 1-.466-2.388l.088-.22a2.178 2.178 0 0 1 2.017-1.353h39.957a2.18 2.18 0 0 1 2.167 2.397c-1.116 10.85-5.37 21.079-12.303 29.582zm-8.17 8.155a56.558 56.558 0 0 1-8.434 5.675 2.187 2.187 0 0 1-1.77.147 2.175 2.175 0 0 1-1.29-1.218l-9.657-23.19a2.176 2.176 0 1 1 3.552-2.372l17.764 17.734a2.17 2.17 0 0 1-.165 3.224zm-17.75 9.007a2.177 2.177 0 0 1-1.336 1.152 56.088 56.088 0 0 1-10.548 2.123 2.18 2.18 0 0 1-2.401-2.163v-26.384a2.176 2.176 0 0 1 2.18-2.175c.865 0 1.667.516 2.01 1.34l10.137 24.344a2.17 2.17 0 0 1-.042 1.763zm-17.661-46.61c-3.26 0-5.913-2.647-5.913-5.901 0-3.255 2.652-5.903 5.913-5.903 3.26 0 5.912 2.648 5.912 5.903 0 3.254-2.652 5.902-5.912 5.902zm13.562 89.548c0 7.466-6.084 13.539-13.562 13.539s-13.562-6.073-13.562-13.539c0-7.464 6.084-13.538 13.562-13.538s13.562 6.074 13.562 13.538zm-17.657-40.212a2.18 2.18 0 0 1-1.682.549 56.008 56.008 0 0 1-10.549-2.123 2.17 2.17 0 0 1-1.377-2.915l10.137-24.344a2.178 2.178 0 0 1 4.19.834v26.385c0 .615-.261 1.202-.72 1.614zm-19.821-7.13a2.176 2.176 0 0 1-3.06 1.072 56.535 56.535 0 0 1-8.436-5.675 2.174 2.174 0 0 1-.164-3.224l17.764-17.733a2.174 2.174 0 0 1 2.751-.27 2.17 2.17 0 0 1 .8 2.642l-9.655 23.189zM74.04 151.88l-.111-.003a2.18 2.18 0 0 1-1.58-.798c-6.932-8.503-11.187-18.733-12.302-29.583a2.171 2.171 0 0 1 .55-1.679 2.18 2.18 0 0 1 1.617-.717h39.956c.886 0 1.683.535 2.017 1.353l.087.216c.35.817.166 1.764-.463 2.392L75.58 151.242a2.18 2.18 0 0 1-1.54.637zm-1.69-71.5a2.181 2.181 0 0 1 3.23-.165l28.23 28.182c.629.628.813 1.572.465 2.388l-.088.221a2.177 2.177 0 0 1-2.017 1.353H62.214a2.182 2.182 0 0 1-1.618-.717 2.171 2.171 0 0 1-.55-1.679c1.116-10.85 5.371-21.08 12.304-29.583zm8.17-8.155c8.516-6.921 18.764-11.168 29.634-12.282a2.18 2.18 0 0 1 2.401 2.163v39.887c0 .886-.54 1.683-1.361 2.016l-.214.085a2.182 2.182 0 0 1-2.394-.463L80.355 75.448a2.17 2.17 0 0 1 .164-3.224zm21.849-51.945c0-7.465 6.084-13.538 13.562-13.538s13.562 6.073 13.562 13.538-6.084 13.538-13.562 13.538-13.562-6.073-13.562-13.538zm17.657 40.212a2.183 2.183 0 0 1 1.682-.55c10.87 1.115 21.118 5.362 29.634 12.283a2.173 2.173 0 0 1 .165 3.224l-28.232 28.182a2.18 2.18 0 0 1-2.389.465l-.217-.087a2.174 2.174 0 0 1-1.362-2.016V62.105c0-.615.26-1.202.719-1.614zm53.927 113.158a13.482 13.482 0 0 1 9.59-3.966c3.622 0 7.027 1.409 9.589 3.966a13.436 13.436 0 0 1 3.972 9.573c0 3.616-1.411 7.015-3.973 9.572a13.485 13.485 0 0 1-9.59 3.965 13.484 13.484 0 0 1-9.588-3.965 13.437 13.437 0 0 1-3.973-9.572c0-3.617 1.412-7.017 3.973-9.573zm8.82 85.079c1.202 0 2.177.973 2.177 2.174v4.183c0 1.201-.975 2.175-2.178 2.175H49.09a2.177 2.177 0 0 1-2.178-2.175v-4.183c0-1.2.975-2.174 2.178-2.174h133.683zM57.908 192.794a13.482 13.482 0 0 1-9.59 3.966 13.486 13.486 0 0 1-9.588-3.966 13.435 13.435 0 0 1-3.972-9.572c0-3.616 1.41-7.016 3.972-9.573a13.483 13.483 0 0 1 9.589-3.965c3.623 0 7.028 1.408 9.59 3.966a13.435 13.435 0 0 1 3.972 9.572c0 3.616-1.411 7.015-3.973 9.572zm-37.595-63.528c-7.478 0-13.562-6.073-13.562-13.538s6.084-13.538 13.562-13.538 13.562 6.073 13.562 13.538-6.084 13.538-13.562 13.538zm37.595-71.46a13.487 13.487 0 0 1-9.594 3.966c-3.62 0-7.024-1.408-9.585-3.964a13.438 13.438 0 0 1-3.972-9.573c0-3.617 1.41-7.017 3.973-9.573a13.484 13.484 0 0 1 9.589-3.965c3.623 0 7.028 1.408 9.59 3.965a13.437 13.437 0 0 1 3.972 9.572c0 3.616-1.411 7.016-3.973 9.573zm116.044-19.144a13.484 13.484 0 0 1 9.589-3.965c3.622 0 7.028 1.408 9.59 3.966a13.436 13.436 0 0 1 3.972 9.572 13.44 13.44 0 0 1-3.972 9.574 13.486 13.486 0 0 1-9.59 3.964 13.487 13.487 0 0 1-9.59-3.965 13.437 13.437 0 0 1-3.972-9.573c0-3.616 1.411-7.016 3.973-9.573zm37.595 56.788c-9.294 0-17.39 6.28-19.686 15.271a2.179 2.179 0 0 1-2.11 1.637h-8.95a2.176 2.176 0 0 1-2.171-1.99c-1.102-12.962-6.147-25.094-14.589-35.085a2.172 2.172 0 0 1 .125-2.94l6.345-6.334a2.176 2.176 0 0 1 2.656-.33 20.28 20.28 0 0 0 10.374 2.835c5.427 0 10.528-2.11 14.365-5.94a20.129 20.129 0 0 0 5.95-14.34 20.13 20.13 0 0 0-5.95-14.338 20.2 20.2 0 0 0-14.364-5.94 20.2 20.2 0 0 0-14.365 5.94 20.13 20.13 0 0 0-5.949 14.339c0 3.665.982 7.246 2.84 10.356a2.17 2.17 0 0 1-.331 2.651l-6.346 6.334c-.423.423-.98.637-1.54.637-.498 0-.997-.17-1.404-.512-10.008-8.427-22.162-13.463-35.147-14.563a2.176 2.176 0 0 1-1.994-2.167v-8.934c0-.994.675-1.861 1.64-2.107 9.007-2.292 15.298-10.373 15.298-19.651 0-11.182-9.113-20.28-20.314-20.28S95.617 9.098 95.617 20.28c0 9.278 6.29 17.359 15.298 19.651a2.176 2.176 0 0 1 1.64 2.107v8.934c0 1.13-.866 2.071-1.995 2.167-12.984 1.1-25.138 6.136-35.146 14.563a2.174 2.174 0 0 1-1.404.513c-.559 0-1.117-.214-1.54-.637l-6.345-6.334a2.172 2.172 0 0 1-.332-2.652 20.195 20.195 0 0 0 2.84-10.356 20.128 20.128 0 0 0-5.95-14.338 20.201 20.201 0 0 0-14.364-5.94 20.2 20.2 0 0 0-14.364 5.939 20.13 20.13 0 0 0-5.95 14.34 20.13 20.13 0 0 0 5.95 14.338 20.2 20.2 0 0 0 14.364 5.94c3.672 0 7.259-.98 10.374-2.835a2.18 2.18 0 0 1 2.656.33l6.346 6.335c.8.799.855 2.076.125 2.94-8.442 9.99-13.487 22.122-14.589 35.084a2.177 2.177 0 0 1-2.17 1.991h-8.95A2.178 2.178 0 0 1 40 110.721c-2.297-8.99-10.392-15.27-19.686-15.27C9.113 95.45 0 104.546 0 115.728c0 11.182 9.113 20.279 20.314 20.279 9.294 0 17.39-6.28 19.686-15.271a2.178 2.178 0 0 1 2.11-1.638h8.95c1.133 0 2.075.866 2.171 1.991 1.102 12.962 6.147 25.094 14.589 35.085.73.863.675 2.14-.125 2.94l-6.346 6.334a2.175 2.175 0 0 1-2.656.33 20.278 20.278 0 0 0-10.374-2.835 20.197 20.197 0 0 0-14.364 5.94 20.128 20.128 0 0 0-5.95 14.34 20.129 20.129 0 0 0 5.95 14.338 20.2 20.2 0 0 0 14.364 5.94c5.426 0 10.527-2.11 14.363-5.94a20.127 20.127 0 0 0 5.95-14.339c0-3.665-.982-7.246-2.84-10.355a2.172 2.172 0 0 1 .332-2.652l6.345-6.334a2.175 2.175 0 0 1 1.54-.637c.499 0 .997.17 1.405.512a63.29 63.29 0 0 0 11.318 7.61c.998.523 1.43 1.72.998 2.758L55.864 250.65a2.178 2.178 0 0 1-2.012 1.34H43.534a3.377 3.377 0 0 0-3.376 3.37v15.27a3.377 3.377 0 0 0 3.376 3.37h144.791a3.377 3.377 0 0 0 3.377-3.37v-15.271a3.377 3.377 0 0 0-3.377-3.37H65.885a2.18 2.18 0 0 1-1.813-.968 2.17 2.17 0 0 1-.199-2.042l30.074-72.22a2.179 2.179 0 0 1 2.68-1.236 62.699 62.699 0 0 0 13.933 2.796 2.176 2.176 0 0 1 1.995 2.167v8.934c0 .994-.676 1.861-1.64 2.107-9.007 2.293-15.298 10.374-15.298 19.652 0 11.182 9.113 20.278 20.314 20.278 11.2 0 20.314-9.096 20.314-20.278 0-9.278-6.29-17.36-15.298-19.652a2.176 2.176 0 0 1-1.64-2.107v-8.934c0-1.13.866-2.07 1.994-2.167a62.691 62.691 0 0 0 13.933-2.796 2.18 2.18 0 0 1 2.681 1.235l19.31 46.371a3.37 3.37 0 0 0 4.413 1.819 3.354 3.354 0 0 0 1.825-1.827 3.342 3.342 0 0 0-.003-2.58l-19.328-46.417a2.173 2.173 0 0 1 .997-2.759 63.296 63.296 0 0 0 11.319-7.61 2.172 2.172 0 0 1 1.404-.512c.56 0 1.117.214 1.54.637l6.346 6.335a2.17 2.17 0 0 1 .33 2.651 20.19 20.19 0 0 0-2.839 10.356 20.128 20.128 0 0 0 5.95 14.339 20.199 20.199 0 0 0 14.364 5.94 20.2 20.2 0 0 0 14.365-5.94 20.13 20.13 0 0 0 5.95-14.338c0-5.418-2.114-10.51-5.95-14.34a20.199 20.199 0 0 0-14.364-5.939c-3.67 0-7.259.98-10.374 2.835a2.176 2.176 0 0 1-2.656-.33l-6.346-6.335a2.172 2.172 0 0 1-.125-2.939c8.442-9.99 13.487-22.123 14.59-35.086a2.176 2.176 0 0 1 2.17-1.99h8.95c.995 0 1.864.674 2.11 1.638 2.297 8.991 10.392 15.27 19.686 15.27 11.201 0 20.314-9.096 20.314-20.278 0-11.181-9.113-20.278-20.315-20.278z"/>
        <path d="M166.475 233.197c-.443 0-.878.087-1.293.26a3.353 3.353 0 0 0-1.826 1.825 3.344 3.344 0 0 0 .003 2.579l.555 1.331a3.369 3.369 0 0 0 4.413 1.818 3.371 3.371 0 0 0 1.822-4.404l-.554-1.332a3.37 3.37 0 0 0-3.12-2.077"/>
    </g>
</svg>
