<svg xmlns="http://www.w3.org/2000/svg" width="640" height="274" viewBox="0 0 640 274">
    <g fill="#FFF" fill-rule="evenodd">
        <path d="M361.559 229.811h-8.197v-2.44h3.006l-1.017-2.457 2.823-.622c.466 1.132.85 2.158 1.154 3.078h2.23v2.441zm18.563-1.455h-17.85v-2.047h7.15c-.132-.435-.36-.9-.684-1.395l3.051-.5.774 1.895h7.56v2.047zm-.91 5.246h-7.483v-4.246h7.483v4.246zm-2.383-1.547v-1.122h-2.733v1.122h2.733zm-6.466 1.547h-7.347v-4.246h7.346v4.246zm-2.43-1.607v-1.062h-2.55v1.062h2.55zm-6.996 2.32h-6.967v-2.35h6.967v2.35zm19.367 9.294h-9.547c-.971.97-2.07 1.88-3.294 2.73v2.76c.84-.173 2.105-.547 3.795-1.123l.121 2.274a31.43 31.43 0 0 1-6.36 1.683l-.819-1.986c.435-.303.653-.728.653-1.273v-.88c-.89.374-1.665.677-2.323.91l-1.275-2.184c2.378-.758 4.306-1.728 5.783-2.91h-5.251v-1.866h4.69v-1.334h-3.856v-1.683h3.856v-1.334h-4.265v-1.896h4.265v-1.122h2.671v1.122h3.704v-1.122h2.671v1.122h4.22v1.896h-4.22v1.334h3.628v1.683h-3.628v1.334h4.781v1.865zm-7.452-4.882v-1.334h-3.704v1.334h3.704zm0 3.017v-1.334h-3.704v1.334h3.704zm-11.946-2.926h-6.936v-2.411h6.936v2.41zm-.03 12.236h-2.49v-1.304h-1.988v1.956h-2.459v-10.674h6.937v10.022zm-2.49-3.76v-3.806h-1.988v3.806h1.989zm22.328 2.486l-1.472 2.305c-4.888-1.233-7.913-3.614-9.077-7.141l2.338-.85c.415 1.052.956 1.926 1.624 2.624a26.632 26.632 0 0 0 3.066-2.396l2.019 1.395c-1.205 1.081-2.216 1.88-3.036 2.396 1.073.717 2.585 1.273 4.538 1.667zm14.39-19.68H384.22v-2.518h4.174a20.486 20.486 0 0 0-1.063-2.335l2.763-.682c.455.788.88 1.794 1.275 3.017h3.734v2.517zm16.286 5.655h-4.037c-.516 0-.982-.22-1.397-.66-.415-.44-.622-.937-.622-1.493v-5.52h-4.265v1.866c0 1.364-.342 2.684-1.025 3.957-.683 1.274-1.616 2.25-2.8 2.927l-1.928-1.896c2.034-1.071 3.051-2.987 3.051-5.746v-3.655h9.669v6.915c0 .202.096.384.288.545.192.162.375.243.547.243h2.52v2.517zm-17.03-1.152h-9.305v-2.487h9.305v2.487zm0 4.442h-9.305v-2.456h9.305v2.456zm17.38 10.432l-1.306 2.517a23.828 23.828 0 0 1-7.119-3.639c-1.943 1.476-4.194 2.72-6.754 3.73l-1.579-2.365c2.54-.789 4.655-1.855 6.345-3.2a20.954 20.954 0 0 1-3.916-6.398h-1.412v-2.547h13.555v2.547c-1.306 2.699-2.702 4.822-4.19 6.368 1.7 1.294 3.825 2.29 6.375 2.987zm-5.161-9.355h-6.193c.9 1.95 1.897 3.482 2.99 4.594 1.133-1.092 2.2-2.623 3.203-4.594zm-12.189 10.962h-2.702v-1.243h-3.916v1.986h-2.64v-10.735h9.258v9.992zm-2.702-3.76v-3.684h-3.916v3.684h3.916zm36.58-17.346h-12.931v-2.456h5.13a21.814 21.814 0 0 0-1.154-2.517l2.9-.53c.475.838.93 1.854 1.366 3.047h4.69v2.456zm14.208 6.02h-5.662v15.799h-2.823v-15.8h-5.54v-2.729h5.54v-8.536h2.823v8.536h5.662v2.73zm-15.664-1.395H416.46v-2.487h10.352v2.487zm0 4.473H416.46v-2.457h10.352v2.457zm.06 12.327h-2.701v-1.562h-4.827v1.956h-2.732v-10.674h10.26v10.28zm-2.701-4.033v-3.7h-4.827v3.7h4.827zm34.91-5.626c-.84-.333-1.26-.98-1.26-1.94 0-.567.215-1.032.646-1.396.43-.363.903-.545 1.419-.545.587 0 1.067.212 1.442.636.374.425.561.95.561 1.577 0 1.163-.89 2.421-2.671 3.776l-.941-.728c.384-.556.652-1.016.804-1.38zm26.76-16.057c-1.923 3.093-4.316 5.57-7.18 7.43l-1.396-2.396c2.277-1.324 4.346-3.427 6.208-6.308l2.368 1.274zm18.867 8.082l-1.928 1.91c-.991-1.375-2.236-2.709-3.734-4.003-.81 1.314-1.603 2.401-2.383 3.26l-2.155-1.577c2.166-2.385 3.678-5.317 4.538-8.794l2.626.5c-.202.95-.693 2.38-1.472 4.291 1.811 1.517 3.314 2.987 4.508 4.413zm-9.972-1.896l-1.867 1.926c-.658-1.01-1.3-1.88-1.928-2.608-1.245 2.012-2.469 3.477-3.673 4.397l-1.7-2.077c2.469-2.103 4.2-5.085 5.19-8.946l2.55.591c-.161.779-.545 1.982-1.153 3.61 1.113 1.141 1.974 2.177 2.58 3.107zm-9.457 1.077l-1.517 2.805v16.042h-2.733v-12.19c-.85.838-1.639 1.55-2.367 2.137l-1.427-2.426c2.327-1.85 4.225-4.311 5.692-7.384l2.352 1.016zm19.657 15.754l-.653 2.699c-1.589.02-2.874.03-3.855.03-2.47 0-4.235-.09-5.298-.273a10.218 10.218 0 0 1-3.119-1.092c-1.017-.545-1.915-1.354-2.694-2.426-.759 1.79-1.584 3.26-2.474 4.413l-2.247-1.592c2.409-3.043 3.633-7.5 3.674-13.374h2.701a49.583 49.583 0 0 1-.774 7.506c.921 1.94 2.216 3.164 3.886 3.67v-12.92h2.732v3.473h6.436v2.668h-6.436v7.248c1.306-.02 4.012-.03 8.12-.03zm10.959-20.227l-1.791 1.926c-1.124-1.355-2.677-2.69-4.66-4.003l1.73-2.047c1.71 1.061 3.284 2.436 4.72 4.124zm19.838 1.531h-18.594v-2.577h7.438a14.743 14.743 0 0 0-1.154-2.335l2.823-.713 1.382 3.048h8.105v2.577zm.182 18.726l-.713 2.669c-2.925.04-5.232.06-6.922.06-3.693 0-6.225-.078-7.597-.235a14.794 14.794 0 0 1-3.878-.97 10.02 10.02 0 0 1-3.202-2.055c-1.093 1.618-2.06 2.881-2.9 3.791l-2.11-1.713c2.52-2.79 4.19-5.696 5.01-8.719h-4.448v-2.683c1.781-1.982 3.117-3.7 4.008-5.156h-4.478v-2.668h7.802v2.668c-.941 1.415-2.201 3.134-3.78 5.156h3.78v2.683a31.719 31.719 0 0 1-1.7 4.458 7.646 7.646 0 0 0 1.867 1.38c.718.384 1.505.692 2.36.925.855.232 2.226.384 4.113.455 1.887.07 3.954.106 6.2.106 2.379 0 4.574-.05 6.588-.152zm-2.08-14.753h-14.95v-2.305h14.95v2.305zm.031 4.003h-14.981v-2.26h14.981v2.26zm-.06 9.188h-14.89v-7.384h14.89v7.384zm-2.702-2.41v-2.487h-9.487v2.487h9.487zm15.952-16.876l-2.55 1.273c-.86-1.233-1.917-2.37-3.172-3.411l2.459-1.456a29.43 29.43 0 0 1 3.263 3.594zm19.763 23.168h-17.44v-2.487h7.346v-3.062h-6.284v-2.517h6.238l.046-2.608h-6.01v-14.875h14.647v14.875h-5.996v2.608h6.269v2.517h-6.269v3.062h7.453v2.487zm-4.129-19.317v-3.715h-3.324v3.715h3.324zm-6.01 0v-3.715h-3.264v3.715h3.263zm6.01 6.095v-3.639h-3.324v3.64h3.324zm-6.01 0v-3.639h-3.264v3.64h3.263zm-6.33-.88c-.587.991-1.26 1.947-2.019 2.867.79.96 1.346 1.683 1.67 2.168l-1.988 1.713c-.678-.99-1.539-2.077-2.58-3.26v11.387h-2.672v-10.052c-.577.677-1.29 1.349-2.14 2.016l-1.367-2.668c2.844-2.154 5.03-5.156 6.558-9.007h-6.072v-2.608h8.925v2.608a30.521 30.521 0 0 1-2.671 5.246c.172.142.37.36.592.652.536-.626 1.138-1.486 1.806-2.577l1.958 1.516zm46.69 12.525c0 .698-.249 1.259-.744 1.683-.496.425-1.888.637-4.175.637-.425 0-.799-.01-1.123-.03l-.713-2.972c.749.172 1.64.258 2.671.258.557 0 .916-.05 1.078-.152.162-.101.243-.313.243-.637v-12.979h-8.895v-9.84h11.657v24.032zm-2.763-20.181v-1.335h-6.072v1.335h6.072zm0 3.624v-1.335h-6.072v1.335h6.072zm-10.944 2.365h-8.895v16.573h-2.792v-26.414h11.687v9.841zm-2.808-5.99v-1.334h-6.087v1.335h6.087zm0 3.625v-1.335h-6.087v1.335h6.087zm12.72 11.614h-4.357v6.717h-2.762v-6.717h-3.673c-.294 2.77-1.64 5.04-4.038 6.808l-2.307-1.865c2.014-1.324 3.177-2.972 3.491-4.943h-4.326v-2.608h4.569v-2.547h-3.597V236.8h16.104v2.578h-3.46v2.547h4.356v2.608zm-7.12-2.608v-2.547h-3.445v2.547h3.446zm43.078-4.806l-2.915 1.243c-.172-.677-.46-1.476-.865-2.396-3.44.526-7.255.91-11.444 1.153l-.653-2.639c.455-.12.936-.379 1.442-.773.506-.394 1.191-1.526 2.057-3.396a39.075 39.075 0 0 0 2.132-5.747l3.097.38c-.638 2.243-2.024 5.266-4.16 9.066 1.7-.02 3.816-.237 6.345-.652a31.6 31.6 0 0 0-2.307-4.003l2.702-1.091c2.014 3.093 3.537 6.045 4.569 8.855zm-14.89-4.7c-.243.02-.77.085-1.58.196-.394 4.71-1.223 8.436-2.488 11.175 1.366 1.183 2.52 2.31 3.46 3.381l-2.337 2.305c-.972-1.294-1.822-2.29-2.55-2.987-1.558 2.275-3.258 4.064-5.1 5.368l-2.019-2.38c2.277-1.74 3.916-3.428 4.918-5.065-1.255-1.112-2.717-2.24-4.387-3.381a76.53 76.53 0 0 0 1.807-7.673c-.365.05-1.103.101-2.216.152v-2.73c1.325-.06 2.226-.12 2.701-.181.334-1.76.607-3.73.82-5.914l2.914.258c-.243 1.86-.51 3.68-.804 5.459.597-.02 1.447-.071 2.55-.152.06-.495.09-1.314.09-2.456h2.854c0 .434-.02 1.142-.06 2.122l1.427-.136v2.638zm-4.539.5l-2.823.257a191.45 191.45 0 0 1-1.397 6.884c1.022.738 1.802 1.33 2.338 1.774 1.042-2.76 1.67-5.731 1.882-8.915zm17.85 18.907h-2.884v-1.364h-7.59v1.364h-2.868v-12.873h13.342v12.873zm-2.884-4.063v-6.141h-7.59v6.14h7.59z"/>
        <path d="M154.542 16.092c-2.071 0-4.123.063-6.151.178a2.39 2.39 0 0 0-1.945 1.228c-12.192 21.93-22.327 39.548-31.903 55.44a2.384 2.384 0 0 0 .796 3.258c5.84 3.59 10.76 8.036 14.62 13.215 4.228 5.669 6.964 12.47 9.294 18.976a2.384 2.384 0 0 0 2.859 1.501c14.613-3.876 28.34-10.713 40.81-20.322 11.528-8.882 23.306-25.907 21.926-42.308-.859-10.217-6.748-18.507-17.03-23.977-8.844-4.707-20.352-7.19-33.276-7.19M104.586 90.89a2.39 2.39 0 0 0-1.75 1.097 939.874 939.874 0 0 1-9.98 15.464 2.387 2.387 0 0 0 1.483 3.639 99.562 99.562 0 0 0 21.103 2.263l1.507-.008a2.392 2.392 0 0 0 2-1.144c.43-.699.465-1.569.104-2.3-3.901-7.845-7.997-13.843-12.518-18.332a2.376 2.376 0 0 0-1.949-.679M582.83 28.62c-3.885 0-8.096.588-12.518 1.752-14.327 3.762-26.761 12.79-36.96 26.844-16.042 25.812-5.544 74.206 35.028 102.608a2.387 2.387 0 0 0 2.592.095c18.316-10.92 34.055-30.563 42.103-52.549 6.263-21.112 6.29-50.722-5.686-66.742-5.957-7.968-14.22-12.008-24.559-12.008m-321.646 80.113c-6.1.143-11.787 2.442-16.892 6.824-4.959 4.262-8.951 9.934-11.862 16.854-2.891 6.884-4.358 14.269-4.358 21.959 0 4.723.994 8.206 3.034 10.653 2.123 2.543 5.046 3.834 8.684 3.834 3.678 0 7.122-2.05 10.236-6.09 2.855-3.714 4.942-8.643 6.203-14.657l7.352-36.525a2.385 2.385 0 0 0-2.338-2.852h-.06m188.882 0c-6.1.143-11.787 2.442-16.892 6.824-4.959 4.262-8.951 9.934-11.862 16.854-2.89 6.884-4.358 14.269-4.358 21.959 0 4.723.994 8.206 3.034 10.653 2.123 2.543 5.046 3.834 8.684 3.834 3.679 0 7.122-2.05 10.236-6.09 2.855-3.714 4.942-8.643 6.203-14.657l7.352-36.525a2.385 2.385 0 0 0-2.338-2.852h-.06m64.157 9.032a2.383 2.383 0 0 0-2.378 2.209c-.994 13.47-.183 31.675 9.324 41.9 4.74 5.092 11.11 7.678 18.936 7.678 2.16 0 4.458-.199 6.836-.596.421-.068.835-.163 1.248-.258l.712-.155a2.382 2.382 0 0 0 1.062-4.175c-4.144-3.424-7.874-6.987-11.09-10.586-8.86-9.919-16.84-22.213-22.48-34.618a2.388 2.388 0 0 0-2.17-1.399m-167.576-7.448c-5.662 0-11.965 5.28-19.258 16.136a2.346 2.346 0 0 0-.401 1.27c-.14 5.844-.207 14.233-.207 25.654 0 6.026-.064 10.733-.195 13.99a2.384 2.384 0 0 0 .855 1.927c.433.361.978.556 1.531.556.171 0 .346-.02.517-.06 5.201-1.156 10.048-4.016 14.407-8.508 4.242-4.378 7.65-9.852 10.14-16.27 2.48-6.4 3.737-13.2 3.737-20.208 0-4.484-.97-8.012-2.883-10.482-2.028-2.622-4.879-4.005-8.243-4.005m-42.106 62.699c-.939 0-1.81.556-2.191 1.445-5.718 13.28-10.3 26.134-13.616 38.206-3.348 12.183-5.046 22.606-5.046 30.983 0 4.616.553 8.112 1.69 10.686 1.404 3.181 3.309 4.794 5.659 4.794 5.193 0 8.569-7.579 11.297-25.335 2.382-15.535 3.928-35.158 4.593-58.325a2.383 2.383 0 0 0-1.87-2.395 2.321 2.321 0 0 0-.516-.06m-15.095 100.789c-6.354 0-10.903-2.181-13.906-6.678-3.157-4.73-4.76-11.495-4.76-20.1 0-12.64 2.967-27.63 8.809-44.564 1.666-4.83 3.65-9.907 6.06-15.512a2.392 2.392 0 0 0-.346-2.45 2.388 2.388 0 0 0-1.85-.875c-.162 0-.325.016-.488.048-1.448.306-2.772.453-4.045.453-3.837 0-7.272-1.283-10.505-3.925-3.285-2.685-5.814-6.443-7.508-11.166a2.392 2.392 0 0 0-2.247-1.577c-.819 0-1.59.421-2.027 1.128-5.118 8.263-11.361 13.268-18.555 14.889-14.211 4.707-27.361 7.058-39.307 7.058-26.117 0-46.039-11.154-59.217-33.148-4.104-6.86-7.476-15.655-11.046-24.962l-.887-2.312a2.39 2.39 0 0 0-2.231-1.53h-.1c-1.797.08-3.594.116-5.391.116-12.367 0-24.388-1.787-35.733-5.31a2.272 2.272 0 0 0-.708-.112c-.771 0-1.51.377-1.964 1.037-18.59 26.995-43.307 57.983-69.651 57.983-1.718 0-3.444-.135-5.13-.41-6.267-1.016-6.875-5.215-6.68-7.63.417-5.156 5.101-10.904 11.158-10.904.532 0 1.073.044 1.626.135l.024-.143c.847-.052 2.378-.159 3.932-.691 8.148-2.812 15.008-8.5 21.21-14.225 8.753-8.075 17.056-17.803 26.126-30.606a2.38 2.38 0 0 0-.533-3.297c-3.73-2.74-4.589-7.734-3.503-11.039.413-1.263 1.491-3.388 4.016-3.388 1.122 0 2.402.39 3.81 1.16.835.453 1.678.858 2.52 1.263l1.142.552c.338.167.7.246 1.058.246a2.38 2.38 0 0 0 2.004-1.088c2.262-3.496 4.501-7.003 6.716-10.499.847-1.334 1.678-2.685 2.513-4.036l1.805-2.915a2.376 2.376 0 0 0 .096-2.352 2.391 2.391 0 0 0-1.976-1.29 47.385 47.385 0 0 0-2.736-.084c-.625 0-1.26.012-1.909.048-.306.02-.6.027-.887.027-3.555 0-5.384-1.183-5.451-3.515-.1-3.65 4.111-9.522 9.909-9.84.819-.043 1.638-.063 2.461-.063 2.776 0 5.675.238 8.856.727a2.393 2.393 0 0 0 2.406-1.12c11.702-19.337 23.385-39.564 35.72-61.836C134.076 1.998 137.495 0 141.531 0c1.066 0 2.124.143 3.142.425.21.06.425.091.644.091.036 0 .075-.004.115-.004a107.73 107.73 0 0 1 5.333-.13c20.172 0 37.987 5.43 50.162 15.293 21.851 17.7 24.893 50.69 6.78 73.546-14.223 17.943-34.73 30.475-59.308 36.239a2.384 2.384 0 0 0-1.666 3.217c4.982 12.223 11.571 26.062 22.701 36.009 9.504 8.496 21.35 12.802 35.204 12.802 2.123 0 4.33-.099 6.565-.298a2.377 2.377 0 0 0 1.928-1.322c.37-.751.314-1.637-.135-2.34-3.304-5.14-4.982-11.65-4.982-19.357 0-10.149 2.381-19.893 7.086-28.966 4.7-9.072 11.03-16.46 18.82-21.966 7.694-5.438 15.954-8.195 24.539-8.195 2.425 0 3.694.457 4.076.886.401.453 1.188 1.712 1.94 5.001a2.388 2.388 0 0 0 2.772 1.811c2.632-.5 5.427-.75 8.294-.75 7.345 0 7.345 3.078 7.345 4.556 0 2.614-.986 9.14-2.935 19.4-3.101 15.468-4.608 26.007-4.608 32.191 0 2.547.688 4.664 2.04 6.285 1.443 1.731 3.415 2.645 5.706 2.645 3.161 0 6.676-1.791 10.74-5.486 2.66-2.407 6.068-5.986 10.128-10.625.1-.116.187-.239.263-.37 0 0 2.051-3.527 2.763-4.719.223-.365.342-.79.342-1.223 0-19.178-.135-32.756-.401-40.358-.108-3.051 1.025-5.307 3.562-7.099 2.756-1.946 6.3-2.935 10.538-2.935 2.131 0 3.678.373 4.47 1.08.338.302 1.145 1.394 1.288 4.965-.004 3.325.068 5.792.21 7.448a2.387 2.387 0 0 0 2.375 2.181c.715 0 1.403-.322 1.865-.898 4.028-5.028 8.004-8.667 11.822-10.82 3.721-2.097 7.738-3.166 11.937-3.166 6.704 0 12.037 2.626 16.3 8.024 4.338 5.498 6.533 12.878 6.533 21.935a61.09 61.09 0 0 1-3.245 19.67c-2.163 6.352-5.193 12.215-9.003 17.415a2.378 2.378 0 0 0-.33 2.18 2.38 2.38 0 0 0 1.603 1.522c3.03.862 5.519 1.28 7.603 1.28 4.902 0 9.61-1.777 14-5.284 2.22-1.776 4.78-4.203 7.83-7.42a2.38 2.38 0 0 0 .656-1.59c.203-9.672 2.573-18.95 7.043-27.57 4.7-9.073 11.03-16.462 18.82-21.967 7.695-5.438 15.954-8.195 24.539-8.195 2.425 0 3.698.457 4.076.886.401.453 1.189 1.712 1.94 5.001a2.388 2.388 0 0 0 2.772 1.811c2.632-.5 5.428-.75 8.295-.75 7.344 0 7.344 3.078 7.344 4.556 0 2.614-.986 9.14-2.935 19.4-3.101 15.468-4.608 26.007-4.608 32.191 0 2.547.688 4.664 2.04 6.285 1.443 1.731 3.415 2.645 5.706 2.645 3.161 0 6.676-1.791 10.74-5.486 3.682-3.332 8.502-8.568 14.725-16.004a6.27 6.27 0 0 1 1.598-1.346 2.384 2.384 0 0 0 1.09-2.678c-4.7-17.335-4.569-38.924.362-59.238 2.227-9.18 5.969-18.681 10.816-27.484 1.404-3.253 2.934-6.117 4.652-8.727.318-.48.768-.91 1.416-1.355a2.36 2.36 0 0 0 .6-.591c8.355-11.782 26.181-31.548 51.762-31.548 5.495 0 11.106.937 16.669 2.792 41.72 13.911 53.996 64.927 41.757 106.21-6.16 16.807-18.535 34.222-33.06 46.44a2.38 2.38 0 0 0-.776 2.411 2.392 2.392 0 0 0 1.837 1.748 58.588 58.588 0 0 0 11.595 1.184c5.591 0 11.103-.854 16.391-2.542a8.307 8.307 0 0 1 2.541-.374c6.072 0 12.618 5.307 13.258 9.418.119.76.477 3.067-4.295 4.588-7.372 2.356-15.194 3.548-23.242 3.548-11.727 0-23.62-2.46-35.355-7.313-.294-.12-.6-.183-.914-.183a2.4 2.4 0 0 0-.967.207c-7.734 3.432-15.468 5.171-22.987 5.171-6.705 0-13.302-1.394-19.612-4.139-11.023-4.798-19.7-12.727-25.791-23.56a2.38 2.38 0 0 0-2.08-1.215h-.08a2.39 2.39 0 0 0-2.075 1.359c-.53 1.116-1.038 1.934-1.595 2.582-5.332 6.622-11.003 12.226-16.92 16.727-5.634 4.282-11.094 6.455-16.231 6.455-3.838 0-7.273-1.283-10.506-3.925-3.285-2.685-5.814-6.443-7.508-11.166a2.392 2.392 0 0 0-2.246-1.577c-.82 0-1.591.421-2.028 1.128-6.478 10.46-14.328 15.54-23.99 15.54-7.528 0-13.357-2.634-17.815-8.06-.926-1.12-1.777-2.375-2.604-3.833a2.383 2.383 0 0 0-3.667-.604c-2.743 2.455-5.276 4.473-7.75 6.17-6.12 4.202-13.182 6.327-20.991 6.327-6.355 0-11.353-2.197-15.282-6.721a2.381 2.381 0 0 0-1.801-.818c-.45 0-.899.127-1.3.381-7.122 4.624-14.65 7.03-22.372 7.158a2.39 2.39 0 0 0-2.342 2.224c-1.702 25.188-5.599 46.5-11.587 63.35-5.77 16.223-13.807 24.104-24.567 24.104"/>
    </g>
</svg>
