<?xml version="1.0" encoding="utf-8"?>
<!-- Generator: Adobe Illustrator 21.1.0, SVG Export Plug-In . SVG Version: 6.00 Build 0)  -->
<svg version="1.1" id="圖層_1" xmlns="http://www.w3.org/2000/svg" xmlns:xlink="http://www.w3.org/1999/xlink" x="0px" y="0px"
	 viewBox="0 0 110 100" style="enable-background:new 0 0 110 100;" xml:space="preserve">
<style type="text/css">
	.st0{fill:#00D2CD;}
</style>
<g>
	<rect x="4.4" y="36.8" class="st0" width="15.5" height="4.5"/>
	<rect x="4.4" y="29.6" class="st0" width="15.5" height="4.5"/>
	<path class="st0" d="M19.9,60.6V44H4.5v17.8h4.7v-3.2h5.8v2H19.9z M15.1,48.6V54H9.3v-5.4H15.1z"/>
	<path class="st0" d="M21.1,22.3H15c-0.6-1.9-1.3-3.5-2-4.7l-0.1-0.2l-4.9,1.2l0.2,0.3c0.6,1.1,1.1,2.2,1.6,3.4H3v4.6h18V22.3z"/>
	<path class="st0" d="M20.7,34.3l3.5,3.4l0.2-0.1c1.9-1.1,3.5-2.7,4.6-4.8c1.1-2.1,1.7-4.3,1.7-6.5v-2.8H37v8.6c0,1,0.4,1.8,1.1,2.6
		c0.7,0.8,1.5,1.1,2.4,1.1h6.7v-4.6h-4.3c-0.2,0-0.5-0.1-0.7-0.3c-0.3-0.2-0.4-0.4-0.4-0.7V19H25.8v6.1c0,4.3-1.6,7.4-4.8,9
		L20.7,34.3z"/>
	<path class="st0" d="M47.6,57.5c-3.9-1.1-7.3-2.6-9.9-4.6c2.3-2.5,4.5-5.9,6.6-10.1l0-4.5H22v4.6h2.4c1.5,3.7,3.5,7.1,6.1,10
		c-2.6,2.1-6,3.7-9.9,4.9L20.2,58l2.8,4.3l0.2-0.1c4.1-1.6,7.7-3.6,10.8-5.9c3.4,2.5,7.2,4.5,11.4,5.8l0.2,0.1l2.3-4.5L47.6,57.5z
		 M38.8,42.9c-1.5,2.9-3.1,5.1-4.7,6.8c-1.6-1.7-3.1-4-4.4-6.8H38.8z"/>
	<path class="st0" d="M91.4,25.9l0.1,0.2l4.5-2.1l-0.1-0.2c-0.8-2-2.1-4.3-3.9-6.8l-0.1-0.2l-4.4,2.3l0.2,0.2
		C89.2,21.6,90.5,23.8,91.4,25.9z"/>
	<path class="st0" d="M102.7,26.1c1.7-2.6,3-5,3.8-7.1l0.1-0.2l-4.5-1.7l-0.1,0.2c-1.1,2.5-2.3,4.7-3.7,6.6l-0.2,0.2l4.5,2.2
		L102.7,26.1z"/>
	<path class="st0" d="M85,60.7V43.2H72.6c0.4-1,0.8-2.2,1.2-3.7h10.2v-8.6h2.3v-4.4h-2.3v-8H65.3v4.3h5.1l-0.1,3.7h-6.9v4.4h6.9
		c-0.1,1.6-0.2,3-0.3,4.3h-5.6v4.4H69c-1,3-3,6.3-6.1,9.5l-0.1,0.1l2.5,4.2l0.2-0.2c1.5-1.6,2.7-2.9,3.6-4v12.5h4.8v-2.9h6.4v2H85z
		 M79.3,30.9v4.3h-4.5c0.2-1.8,0.3-3.2,0.3-4.3H79.3z M79.3,22.8v3.7h-4.2c0.1-1.2,0.1-2.5,0.1-3.7H79.3z M80.2,47.7v6.5h-6.4v-6.5
		H80.2z"/>
	<polygon class="st0" points="99.2,46.4 99.2,41.1 106.1,41.1 106.1,36.6 99.2,36.6 99.2,31.3 106.7,31.3 106.7,26.8 87.1,26.8 
		87.1,31.3 94.2,31.3 94.2,36.6 87.7,36.6 87.7,41.1 94.2,41.1 94.2,46.4 86.2,46.4 86.2,50.9 94.2,50.9 94.2,61.7 99.2,61.7 
		99.2,50.9 107.5,50.9 107.5,46.4 	"/>
	<path class="st0" d="M19,92c0.7-1.3,1.1-2.8,1.1-4.5c0-1.7-0.4-3.2-1.1-4.6c-0.7-1.4-1.8-2.4-3.1-3.2s-2.8-1.1-4.4-1.1
		c-1.6,0-3.1,0.4-4.4,1.1c-1.3,0.8-2.4,1.8-3.1,3.2c-0.8,1.4-1.1,2.9-1.1,4.6s0.4,3.2,1.1,4.6c0.8,1.4,1.8,2.4,3.1,3.2
		s2.8,1.2,4.4,1.2c0.8,0,1.5-0.1,2.2-0.3l3,3.3h4.1L16.4,95C17.5,94.2,18.4,93.2,19,92z M11.5,81.6c1,0,1.9,0.2,2.7,0.7
		c0.8,0.5,1.4,1.2,1.9,2c0.5,0.9,0.7,1.9,0.7,3.1c0,1.2-0.2,2.2-0.7,3.1c-0.4,0.9-1.1,1.6-1.9,2c-0.8,0.5-1.7,0.7-2.7,0.7
		c-1,0-2-0.2-2.8-0.7c-0.8-0.5-1.4-1.2-1.9-2c-0.5-0.9-0.7-1.9-0.7-3.1c0-1.2,0.2-2.2,0.7-3.1c0.4-0.9,1.1-1.6,1.9-2
		C9.5,81.9,10.5,81.6,11.5,81.6z"/>
	<path class="st0" d="M26.6,76.5h-2.9v2.8H25v0.3c0,0.4-0.1,0.7-0.2,0.9c-0.1,0.2-0.4,0.3-0.7,0.3h-0.2v1.7H24c1,0,1.7-0.3,2.2-0.9
		c0.5-0.6,0.7-1.4,0.7-2.4c0-0.9-0.1-1.7-0.3-2.5L26.6,76.5z"/>
	<path class="st0" d="M40.1,87.2c-0.7-0.3-1.6-0.7-2.7-1c-0.8-0.3-1.5-0.5-2-0.7c-0.5-0.2-0.8-0.5-1.1-0.8c-0.3-0.3-0.4-0.7-0.4-1.3
		c0-0.7,0.2-1.2,0.6-1.5c0.4-0.4,1-0.5,1.7-0.5c0.8,0,1.4,0.2,1.8,0.6c0.5,0.4,0.7,0.9,0.8,1.5l0,0.2h3.4l0-0.3
		c-0.2-1.4-0.8-2.6-1.8-3.4c-1.1-0.9-2.5-1.3-4.3-1.3c-1.1,0-2.1,0.2-3,0.6c-0.9,0.4-1.6,1-2,1.7c-0.5,0.7-0.7,1.6-0.7,2.5
		c0,1.1,0.2,2,0.7,2.7c0.5,0.7,1.1,1.2,1.8,1.5c0.7,0.3,1.6,0.7,2.6,1c0.8,0.3,1.5,0.5,2,0.8c0.5,0.2,0.8,0.5,1.2,0.9
		c0.3,0.3,0.4,0.8,0.4,1.3c0,0.6-0.2,1.1-0.6,1.5c-0.4,0.4-1,0.6-1.8,0.6c-0.9,0-1.5-0.2-2-0.7c-0.5-0.5-0.8-1.1-0.9-1.7l0-0.2h-3.4
		l0,0.3c0.1,1,0.4,1.9,1,2.7c0.6,0.8,1.3,1.4,2.3,1.8c0.9,0.4,2,0.6,3.2,0.6c1.2,0,2.3-0.2,3.1-0.7c0.9-0.5,1.5-1.1,1.9-1.8
		c0.4-0.7,0.6-1.6,0.6-2.4c0-1.1-0.3-2-0.8-2.7C41.5,88.1,40.9,87.5,40.1,87.2z"/>
	<path class="st0" d="M54.6,82.3c-1.1,0-2.1,0.3-3,0.9c-0.6,0.4-1,0.8-1.4,1.4V78h-3.2v18.3h3.2V89c0-1.3,0.3-2.2,0.9-2.9
		c0.6-0.7,1.4-1,2.4-1c1,0,1.7,0.3,2.3,0.9c0.6,0.6,0.8,1.5,0.8,2.6v7.7h3.2v-8c0-1.9-0.5-3.4-1.5-4.4
		C57.5,82.8,56.2,82.3,54.6,82.3z"/>
	<path class="st0" d="M74.8,84.8c-0.4-0.6-0.8-1.1-1.4-1.5h0c-0.9-0.6-2-0.9-3.2-0.9c-1.2,0-2.3,0.3-3.2,0.9
		c-0.9,0.6-1.7,1.4-2.2,2.5c-0.5,1.1-0.8,2.3-0.8,3.7c0,1.4,0.3,2.7,0.8,3.7c0.5,1.1,1.3,1.9,2.2,2.5c0.9,0.6,2,0.9,3.2,0.9
		c1.2,0,2.3-0.3,3.2-0.9c0.6-0.4,1-0.9,1.4-1.5v2.2H78V82.5h-3.2V84.8z M74.3,87.2c0.3,0.6,0.5,1.4,0.5,2.2c0,0.8-0.2,1.6-0.5,2.2
		c-0.3,0.6-0.8,1.1-1.3,1.4c-0.6,0.3-1.2,0.5-1.9,0.5c-1.2,0-2-0.4-2.7-1.1c-0.7-0.7-1-1.7-1-3s0.3-2.3,1-3c0.7-0.7,1.6-1.1,2.7-1.1
		c0.7,0,1.4,0.2,1.9,0.5C73.5,86.1,74,86.6,74.3,87.2z"/>
	<path class="st0" d="M87.6,83.1c-0.6,0.4-1.1,0.8-1.5,1.4v-2h-3.2v13.7H86v-6.9c0-1.3,0.3-2.2,1-2.7c0.7-0.5,1.6-0.8,2.7-0.8h1.1
		v-3.5h-0.2C89.5,82.3,88.4,82.6,87.6,83.1z"/>
	<path class="st0" d="M106.7,90c0.1-0.4,0.1-0.8,0.1-1.2c0-1.2-0.3-2.3-0.8-3.3c-0.5-1-1.3-1.7-2.3-2.3c-1-0.6-2.2-0.8-3.5-0.8
		c-1.3,0-2.5,0.3-3.5,0.8c-1,0.6-1.8,1.4-2.4,2.5c-0.6,1.1-0.9,2.3-0.9,3.7c0,1.4,0.3,2.7,0.9,3.7c0.6,1.1,1.4,1.9,2.4,2.5
		c1,0.6,2.2,0.8,3.5,0.8c1.1,0,2.2-0.2,3.1-0.6c0.9-0.4,1.7-1,2.3-1.8c0.6-0.7,1-1.6,1.2-2.6l0.1-0.3h-3.4l0,0.2
		c-0.1,0.7-0.5,1.3-1.1,1.7c-0.6,0.4-1.3,0.6-2.2,0.6c-1,0-1.8-0.3-2.4-0.9c-0.6-0.6-1-1.4-1-2.6h10.1L106.7,90z M100.2,85
		c0.6,0,1.2,0.1,1.7,0.4c0.5,0.3,0.9,0.7,1.2,1.2c0.3,0.5,0.4,1.1,0.4,1.8h-7c0.1-1.1,0.5-1.9,1.1-2.5C98.3,85.4,99.2,85,100.2,85z"
		/>
</g>
</svg>
