<?xml version="1.0" encoding="utf-8"?>
<!-- Generator: Adobe Illustrator 21.1.0, SVG Export Plug-In . SVG Version: 6.00 Build 0)  -->
<svg version="1.1" id="圖層_1" xmlns="http://www.w3.org/2000/svg" xmlns:xlink="http://www.w3.org/1999/xlink" x="0px" y="0px"
	 viewBox="0 0 110 100" style="enable-background:new 0 0 110 100;" xml:space="preserve">
<style type="text/css">
	.st0{fill:#FFFFFF;}
</style>
<g>
	<path class="st0" d="M3,58.9l-0.2,0.2l3.8,3.3l0.2-0.2c2-2.2,3.4-4.9,4.2-8.1v7.7h4.7v-1.9h9.9v1.9h4.7V48.1H11.8
		c0-0.7,0.1-1.3,0.1-1.8h18.3V30.7H7.8c1.6-0.9,3.3-2,5.1-3.2v1.7h12.4v-2.6c1.1,0.7,2.8,2,5.1,3.9l0.2,0.2l2.9-4.1l-0.2-0.1
		c-3.6-2.7-7.5-5.2-11.6-7.3c0.2-0.2,0.4-0.5,0.5-0.8l0.1-0.3l-5.1-1l-0.1,0.1c-3.2,4-8,7.6-14.3,10.5l-0.3,0.1l3,4.1l0.2-0.1
		c0.5-0.2,1-0.5,1.5-0.7v14.1C7.1,50.9,5.7,55.5,3,58.9z M18.6,22.7c1.5,0.7,3,1.6,4.7,2.6h-7.6C17,24.3,17.9,23.4,18.6,22.7z
		 M25.6,52.2v3.6h-10v-3.6H25.6z M11.9,36.7v-1.8h13.3v1.8H11.9z M11.9,42.2v-1.7h13.3v1.7H11.9z"/>
	<path class="st0" d="M33.5,57l-0.4,0l1.6,4.8l0.2,0c1.1,0.1,2.1,0.1,3.1,0.1c3.3,0,5.4-0.3,6.5-1c1.1-0.7,1.6-1.8,1.6-3.2V17.5
		h-4.8v38.3c0,0.5-0.2,0.8-0.5,1.1c-0.2,0.2-1,0.4-3.1,0.4C36.4,57.2,35,57.1,33.5,57z"/>
	<rect x="33.7" y="21.2" class="st0" width="4.7" height="31.5"/>
	<path class="st0" d="M106,57.7V17.5h-4.8v38.3c0,0.5-0.2,0.8-0.5,1.1c-0.2,0.2-1,0.4-3.1,0.4c-1.2,0-2.6-0.1-4.2-0.2l-0.4,0
		l1.6,4.8l0.2,0c1.1,0.1,2.1,0.1,3.1,0.1c3.3,0,5.4-0.3,6.5-1C105.5,60.2,106,59.2,106,57.7z"/>
	<rect x="93.7" y="21.2" class="st0" width="4.7" height="31.5"/>
	<path class="st0" d="M70.9,61.8h4.7v-1.9h9.9v1.9h4.7V48.1H71.8c0-0.7,0.1-1.3,0.1-1.8h18.3V30.7H67.8c1.6-0.9,3.3-2,5.1-3.2v1.7
		h12.4v-2.6c1.1,0.7,2.8,2,5.1,3.9l0.2,0.2l2.9-4.1l-0.2-0.1c-3.6-2.7-7.5-5.2-11.6-7.3c0.2-0.2,0.4-0.5,0.5-0.8l0.1-0.3l-5.1-1
		l-0.1,0.1c-3.2,4-8,7.6-14.3,10.5l-0.3,0.1l3,4.1l0.2-0.1c0.5-0.2,1-0.5,1.5-0.7v14.1c0,5.7-1.4,10.3-4.2,13.7l-0.2,0.2l3.8,3.3
		l0.2-0.2c2-2.2,3.4-4.9,4.2-8.1V61.8z M78.6,22.7c1.5,0.7,3,1.6,4.7,2.6h-7.6C77,24.3,77.9,23.4,78.6,22.7z M85.6,52.2v3.6h-10
		v-3.6H85.6z M71.9,36.7v-1.8h13.3v1.8H71.9z M71.9,42.2v-1.7h13.3v1.7H71.9z"/>
	<path class="st0" d="M19,92c0.7-1.3,1.1-2.8,1.1-4.5c0-1.7-0.4-3.2-1.1-4.6c-0.7-1.4-1.8-2.4-3.1-3.2s-2.8-1.1-4.4-1.1
		c-1.6,0-3.1,0.4-4.4,1.1c-1.3,0.8-2.4,1.8-3.1,3.2c-0.8,1.4-1.1,2.9-1.1,4.6s0.4,3.2,1.1,4.6c0.8,1.4,1.8,2.4,3.1,3.2
		s2.8,1.2,4.4,1.2c0.8,0,1.5-0.1,2.2-0.3l3,3.3h4.1L16.4,95C17.5,94.2,18.4,93.2,19,92z M11.5,81.6c1,0,1.9,0.2,2.7,0.7
		c0.8,0.5,1.4,1.2,1.9,2c0.5,0.9,0.7,1.9,0.7,3.1c0,1.2-0.2,2.2-0.7,3.1c-0.4,0.9-1.1,1.6-1.9,2c-0.8,0.5-1.7,0.7-2.7,0.7
		c-1,0-2-0.2-2.8-0.7c-0.8-0.5-1.4-1.2-1.9-2c-0.5-0.9-0.7-1.9-0.7-3.1c0-1.2,0.2-2.2,0.7-3.1c0.4-0.9,1.1-1.6,1.9-2
		C9.5,81.9,10.5,81.6,11.5,81.6z"/>
	<path class="st0" d="M25.9,76.5H23v2.8h1.3v0.3c0,0.4-0.1,0.7-0.2,0.9c-0.1,0.2-0.4,0.3-0.7,0.3h-0.2v1.7h0.2c1,0,1.7-0.3,2.2-0.9
		c0.5-0.6,0.7-1.4,0.7-2.4c0-0.9-0.1-1.7-0.3-2.5L25.9,76.5z"/>
	<polygon class="st0" points="38.8,92 33.4,79.1 29.7,79.1 29.7,96.2 32.9,96.2 32.9,84.8 37.3,96.2 40.1,96.2 44.5,84.8 44.5,96.2 
		47.8,96.2 47.8,79.1 44,79.1 	"/>
	<path class="st0" d="M62,84.8c-0.4-0.6-0.8-1.1-1.4-1.5c-0.9-0.6-2-0.9-3.2-0.9c-1.2,0-2.3,0.3-3.2,0.9c-0.9,0.6-1.7,1.4-2.2,2.5
		c-0.5,1.1-0.8,2.3-0.8,3.7c0,1.4,0.3,2.7,0.8,3.7c0.5,1.1,1.3,1.9,2.2,2.5c0.9,0.6,2,0.9,3.2,0.9c1.2,0,2.3-0.3,3.2-0.9
		c0.6-0.4,1-0.9,1.4-1.5v2.2h3.2V82.5H62V84.8z M61.5,87.2c0.3,0.6,0.5,1.4,0.5,2.2c0,0.8-0.2,1.6-0.5,2.2c-0.3,0.6-0.8,1.1-1.3,1.4
		c-0.6,0.3-1.2,0.5-1.9,0.5c-1.1,0-2.1-0.4-2.7-1.1c-0.7-0.7-1-1.7-1-3s0.3-2.3,1-3c0.7-0.7,1.6-1.1,2.7-1.1c0.7,0,1.4,0.2,1.9,0.5
		C60.7,86.1,61.2,86.6,61.5,87.2z"/>
	<polygon class="st0" points="80.9,82.5 76.9,82.5 72.6,87.7 72.6,78 69.3,78 69.3,96.2 72.6,96.2 72.6,90.8 77,96.2 81,96.2 
		74.9,89.4 	"/>
	<path class="st0" d="M96,90c0.1-0.4,0.1-0.8,0.1-1.2c0-1.2-0.3-2.3-0.8-3.3c-0.5-1-1.3-1.7-2.3-2.3c-1-0.6-2.2-0.8-3.5-0.8
		c-1.3,0-2.5,0.3-3.5,0.8c-1,0.6-1.8,1.4-2.4,2.5c-0.6,1.1-0.9,2.3-0.9,3.7c0,1.4,0.3,2.7,0.9,3.7c0.6,1.1,1.4,1.9,2.4,2.5
		c1,0.6,2.2,0.8,3.5,0.8c1.1,0,2.2-0.2,3.1-0.6c0.9-0.4,1.7-1,2.3-1.8c0.6-0.8,1-1.6,1.2-2.6l0.1-0.3h-3.4l0,0.2
		c-0.1,0.7-0.5,1.3-1.1,1.7c-0.6,0.4-1.3,0.6-2.2,0.6c-1,0-1.8-0.3-2.4-0.9c-0.6-0.6-1-1.4-1-2.6h10.1L96,90z M89.4,85
		c0.6,0,1.2,0.1,1.8,0.4c0.5,0.3,0.9,0.7,1.2,1.2c0.3,0.5,0.4,1.1,0.4,1.8h-7c0.1-1.1,0.5-1.9,1.1-2.5C87.6,85.3,88.4,85,89.4,85z"
		/>
	<path class="st0" d="M107.6,82.3c-1.1,0-2.1,0.3-3,0.8c-0.6,0.4-1.1,0.8-1.5,1.4v-2h-3.2v13.7h3.2v-6.9c0-1.3,0.3-2.2,1-2.7
		c0.7-0.5,1.6-0.8,2.7-0.8h1.1v-3.5H107.6z"/>
</g>
</svg>
