<?xml version="1.0" encoding="utf-8"?>
<!-- Generator: Adobe Illustrator 21.1.0, SVG Export Plug-In . SVG Version: 6.00 Build 0)  -->
<svg version="1.1" id="圖層_1" xmlns="http://www.w3.org/2000/svg" xmlns:xlink="http://www.w3.org/1999/xlink" x="0px" y="0px"
	 viewBox="0 0 110 100" style="enable-background:new 0 0 110 100;" xml:space="preserve">
<style type="text/css">
	.st0{fill:#F7B500;}
</style>
<g>
	<path class="st0" d="M3.1,58.1l-0.2,0.2L6.4,62l0.2-0.2c3.5-3,6.3-5.9,8.1-8.8c2.1,1.8,3.9,3.6,5.4,5.4l0.2,0.2l3.4-4l-0.2-0.2
		c-2-2-4.1-4-6.4-5.9c1.9-4.6,3.2-10.6,3.9-18c0.5,0,1.3-0.2,2.4-0.4l0.2,0l0.1-4.8l-0.3,0c-0.7,0.1-1.4,0.2-2,0.3
		c0-0.6,0-1.5-0.1-2.8l0-0.2h-4.6v0.2c0,1-0.1,2.2-0.2,3.4c-1.7,0.2-3,0.3-4,0.3c0.5-2.8,0.9-5.6,1.2-8.4l0-0.2L9,17.3l0,0.3
		c-0.4,3.4-1,6.6-1.6,9.6c-0.8,0.1-2.1,0.2-4,0.3l-0.2,0l0.1,4.8l0.2,0c0.9,0,1.9,0,3.1-0.2C5.9,35.5,5,39.7,3.9,44.4l0,0.2L4,44.7
		c3.6,2.5,5.9,4.3,6.9,5.1C8.6,53.1,6,55.9,3.1,58.1z M9.2,42.6c0.8-3.2,1.6-6.9,2.4-11c1.6-0.1,3.1-0.3,4.4-0.5
		c-0.5,5.6-1.5,10.4-3,14.2C12.3,44.8,11.1,43.9,9.2,42.6z"/>
	<path class="st0" d="M37.4,33.6c2.7-3.2,5.3-6.6,7.9-10.1l0-0.1v-4.7H22.2v4.9H39c-2,2.6-4.2,5.3-6.6,8l-0.1,0.1v5.4H21.2V42h11.2
		v13.6c0,0.9-0.4,1.3-1.3,1.3c-2.2,0-4.5,0-6.8-0.1l-0.4,0l1.9,5H26c3.6,0,6.1-0.1,7.3-0.3c1.2-0.2,2.2-0.7,3-1.4
		c0.8-0.7,1.2-1.9,1.2-3.5V42H47v-4.9h-9.6V33.6z"/>
	<path class="st0" d="M103.8,59.8c0.7-0.8,1.1-2.2,1.4-4.1c0.2-1.8,0.5-6.2,0.7-12.8c0.3-6.6,0.5-12.9,0.5-18.6l0-0.3H89.6
		c0.6-1.7,1.2-3.6,1.6-5.5l0.1-0.3l-4.8-0.8l-0.1,0.2c-1.9,7.6-4.4,13.4-7.5,17.2l-0.2,0.2l4.2,2.5l0.1-0.2c1.8-2.5,3.5-5.4,4.8-8.6
		h1.6c-1.7,7.7-5.2,14-10.6,19L78.7,48l4,3.1l0.2-0.2c5.7-5.8,9.6-13.2,11.4-22.1H96c-0.7,6-2.1,11.2-4.3,15.5
		c-2.2,4.4-5.5,8.8-9.9,13.1l-0.2,0.2l4.1,3.2l0.2-0.2c4.5-4.7,7.9-9.5,10.2-14.4c2.2-4.8,3.8-10.7,4.6-17.5h0.9
		c-0.1,6.7-0.3,12.7-0.5,17.9c-0.2,5.2-0.5,8.2-0.6,8.9c-0.2,0.6-0.4,1.1-0.8,1.4c-0.3,0.2-1.1,0.4-3.6,0.4c-1.3,0-2.8,0-4.7-0.1
		l-0.4,0l1.4,4.7l0.2,0c0.8,0,1.8,0.1,2.9,0.1c3.2,0,5.2-0.1,6.1-0.4C102.4,61.2,103.1,60.6,103.8,59.8z"/>
	<path class="st0" d="M63,44.1l-0.2,0.1l1.1,4.8l0.3-0.1c3.1-0.9,5.6-1.6,7.2-2.1v15h4.8V45.1c2-0.7,3.6-1.3,4.9-1.8l0.2-0.1
		l-0.4-4.9l-0.3,0.1c-0.2,0.1-1.1,0.4-4.4,1.6v-7.8h4.1l-0.1-4.7h-4v-9.9h-4.8v9.9H69c0.2-1.5,0.4-3.3,0.5-5.3l0-0.2l-4.5-0.8l0,0.3
		c-0.3,6-1.1,11.5-2.4,16.3l-0.1,0.2l4.3,1.2l0.1-0.2c0.7-2.6,1.1-4.8,1.4-6.8h3v9.4C68.4,42.7,65.6,43.4,63,44.1z"/>
	<path class="st0" d="M19,92c0.7-1.3,1.1-2.8,1.1-4.5c0-1.7-0.4-3.2-1.1-4.6c-0.7-1.4-1.8-2.4-3.1-3.2s-2.8-1.1-4.4-1.1
		c-1.6,0-3.1,0.4-4.4,1.1c-1.3,0.8-2.4,1.8-3.1,3.2c-0.8,1.4-1.1,2.9-1.1,4.6s0.4,3.2,1.1,4.6c0.8,1.4,1.8,2.4,3.1,3.2
		s2.8,1.2,4.4,1.2c0.8,0,1.5-0.1,2.2-0.3l3,3.3h4.1L16.4,95C17.5,94.2,18.4,93.2,19,92z M11.5,81.6c1,0,1.9,0.2,2.7,0.7
		c0.8,0.5,1.4,1.2,1.9,2c0.5,0.9,0.7,1.9,0.7,3.1c0,1.2-0.2,2.2-0.7,3.1c-0.4,0.9-1.1,1.6-1.9,2c-0.8,0.5-1.7,0.7-2.7,0.7
		c-1,0-2-0.2-2.8-0.7c-0.8-0.5-1.4-1.2-1.9-2c-0.5-0.9-0.7-1.9-0.7-3.1c0-1.2,0.2-2.2,0.7-3.1c0.4-0.9,1.1-1.6,1.9-2
		C9.5,81.9,10.5,81.6,11.5,81.6z"/>
	<path class="st0" d="M25.3,76.5h-2.9v2.8h1.3v0.3c0,0.4-0.1,0.7-0.2,0.9c-0.1,0.2-0.4,0.3-0.7,0.3h-0.2v1.7h0.2
		c1,0,1.7-0.3,2.2-0.9c0.5-0.6,0.7-1.4,0.7-2.4c0-0.9-0.1-1.7-0.3-2.5L25.3,76.5z"/>
	<path class="st0" d="M35.8,89.1h6.2c-0.2,1.3-0.8,2.4-1.7,3.1c-1,0.8-2.1,1.2-3.5,1.2c-1.1,0-2.1-0.2-2.9-0.7
		c-0.8-0.5-1.5-1.1-1.9-2c-0.5-0.9-0.7-2-0.7-3.2c0-1.2,0.2-2.2,0.7-3.1c0.4-0.9,1.1-1.5,1.9-2c0.8-0.5,1.7-0.7,2.7-0.7
		c1.1,0,2.1,0.3,2.9,0.8c0.8,0.5,1.4,1.2,1.7,2.1l0.1,0.2h3.4l-0.1-0.3c-0.4-1.8-1.4-3.2-2.8-4.2c-1.4-1-3.1-1.5-5.2-1.5
		c-1.7,0-3.2,0.4-4.5,1.1c-1.3,0.7-2.3,1.8-3,3.1c-0.7,1.3-1.1,2.9-1.1,4.6s0.4,3.3,1.1,4.6c0.7,1.3,1.7,2.4,3,3.2
		c1.3,0.8,2.8,1.1,4.5,1.1c1.5,0,2.9-0.3,4-0.9c1.2-0.6,2.1-1.5,2.8-2.5c0.7-1,1.2-2.2,1.4-3.5v-2.9h-9V89.1z"/>
	<path class="st0" d="M57.6,83.2c-1.1-0.6-2.3-0.8-3.6-0.8c-1.3,0-2.5,0.3-3.6,0.8c-1.1,0.6-1.9,1.4-2.5,2.4
		c-0.6,1.1-0.9,2.3-0.9,3.7c0,1.4,0.3,2.7,0.9,3.7c0.6,1.1,1.4,1.9,2.5,2.5c1,0.6,2.2,0.8,3.6,0.8c1.3,0,2.5-0.3,3.6-0.8
		c1.1-0.6,1.9-1.4,2.5-2.4c0.6-1.1,0.9-2.3,0.9-3.7c0-1.4-0.3-2.7-0.9-3.7C59.5,84.6,58.7,83.8,57.6,83.2z M55.9,93.1
		c-1.1,0.6-2.5,0.6-3.6,0c-0.5-0.3-1-0.8-1.3-1.4c-0.3-0.6-0.5-1.4-0.5-2.3c0-0.9,0.2-1.7,0.5-2.3c0.3-0.6,0.8-1.1,1.3-1.4
		c1.1-0.6,2.5-0.6,3.6,0c0.5,0.3,1,0.8,1.3,1.4c0.3,0.6,0.5,1.4,0.5,2.3c0,0.9-0.2,1.7-0.5,2.3C56.8,92.3,56.4,92.8,55.9,93.1z"/>
	<path class="st0" d="M73.7,83.2c-1.1-0.6-2.3-0.8-3.6-0.8c-1.3,0-2.5,0.3-3.6,0.8c-1.1,0.6-1.9,1.4-2.5,2.4
		c-0.6,1.1-0.9,2.3-0.9,3.7c0,1.4,0.3,2.7,0.9,3.7c0.6,1.1,1.4,1.9,2.5,2.5c1,0.6,2.2,0.8,3.6,0.8c1.3,0,2.5-0.3,3.6-0.8
		c1.1-0.6,1.9-1.4,2.5-2.4c0.6-1.1,0.9-2.3,0.9-3.7c0-1.4-0.3-2.7-0.9-3.7C75.6,84.6,74.8,83.8,73.7,83.2z M72,93.1
		c-1.1,0.6-2.5,0.6-3.7,0c-0.5-0.3-1-0.8-1.3-1.4c-0.3-0.6-0.5-1.4-0.5-2.3c0-0.9,0.2-1.7,0.5-2.3c0.3-0.6,0.8-1.1,1.3-1.4
		c1.1-0.6,2.5-0.6,3.7,0c0.5,0.3,1,0.8,1.3,1.4c0.3,0.6,0.5,1.4,0.5,2.3c0,0.9-0.2,1.7-0.5,2.3C73,92.3,72.5,92.8,72,93.1z"/>
	<path class="st0" d="M90.1,84.7c-0.4-0.6-0.8-1-1.4-1.4h0c-0.9-0.6-2-0.9-3.2-0.9c-1.2,0-2.3,0.3-3.2,0.9c-0.9,0.6-1.7,1.4-2.2,2.5
		c-0.5,1.1-0.8,2.3-0.8,3.7c0,1.4,0.3,2.7,0.8,3.7c0.5,1.1,1.3,1.9,2.2,2.5c0.9,0.6,2,0.9,3.2,0.9c1.2,0,2.3-0.3,3.2-0.9
		c0.6-0.4,1-0.9,1.4-1.4v2.2h3.3V78h-3.3V84.7z M89.6,87.2c0.3,0.6,0.5,1.4,0.5,2.2c0,0.8-0.2,1.6-0.5,2.2c-0.3,0.6-0.8,1.1-1.3,1.4
		c-0.6,0.3-1.2,0.5-1.9,0.5c-1.2,0-2-0.4-2.7-1.1c-0.7-0.7-1-1.7-1-3s0.3-2.3,1-3c0.7-0.7,1.6-1.1,2.7-1.1c0.7,0,1.4,0.2,1.9,0.5
		C88.8,86.1,89.3,86.6,89.6,87.2z"/>
	<path class="st0" d="M105.9,90.2c-0.5-0.5-1-1-1.7-1.2c-0.6-0.2-1.5-0.5-2.4-0.7c-0.7-0.2-1.3-0.3-1.7-0.5
		c-0.4-0.1-0.7-0.3-0.9-0.5c-0.2-0.2-0.3-0.5-0.3-0.8c0-0.5,0.2-0.9,0.5-1.1c0.3-0.3,0.8-0.4,1.4-0.4c0.8,0,1.4,0.2,1.8,0.6
		c0.5,0.4,0.7,0.9,0.8,1.6l0,0.2h3.1l0-0.3c-0.2-1.4-0.8-2.5-1.8-3.3c-1-0.8-2.3-1.2-3.9-1.2c-1.5,0-2.8,0.4-3.7,1.1
		c-0.9,0.7-1.4,1.7-1.4,2.9c0,0.9,0.2,1.7,0.7,2.2c0.5,0.5,1,0.9,1.6,1.2c0.6,0.2,1.4,0.5,2.4,0.7c0.7,0.2,1.3,0.3,1.7,0.5
		c0.4,0.1,0.7,0.3,1,0.6c0.2,0.2,0.4,0.5,0.4,0.9c0,0.5-0.2,0.8-0.5,1.1c-0.3,0.3-0.8,0.5-1.4,0.5c-0.8,0-1.5-0.2-2.1-0.6
		c-0.5-0.4-0.8-0.9-0.9-1.6l0-0.2h-3.2l0,0.3c0.2,1.4,0.9,2.6,1.9,3.4c1.1,0.8,2.5,1.2,4.1,1.2c1.5,0,2.7-0.4,3.6-1.1
		c0.9-0.7,1.4-1.7,1.4-2.9C106.6,91.5,106.3,90.7,105.9,90.2z"/>
</g>
</svg>
